<svg xmlns="http://www.w3.org/2000/svg" width="505px" height="400px" viewBox="0 0 505 400" version="1.1"><g id="Page-1" stroke="none" stroke-width="1" fill="none" fill-rule="evenodd"><g id="2" transform="translate(-1.000000, 0.000000)" fill-rule="nonzero"><rect id="Rectangle-path" fill="#63A0FF" x="74.68" y="12.99" width="360" height="360"></rect><g id="Ebene_1"><path d="M339,384.1 C338.903611,380.722255 339.104384,377.342576 339.6,374 L1.1,373.2 C2.1,379.4 3.2,385.6 4.4,391.7 L340,394.1 C339.468938,390.78941 339.135017,387.450195 339,384.1 Z" id="Shape" fill="#FDFDFD"></path><path d="M249.5,289.8 L254.7,308 L266.5,331 L278,352.8 L254.8,358.3 L238.8,359.5 L228,358.7 L211.8,360.4 L200.5,359.2 C200.5,359.2 193.3,385.2 194,385 C194.7,384.8 290.2,382 290.2,382 L299,371.9 L298.7,364.5 L296.7,356 L284.7,331.2 L274.5,310.2 L260.3,280.7 L249.5,289.8 Z" id="Shape" fill="#FDFDFD"></path><path d="M339,384.1 C338.869729,380.924668 339.037127,377.744114 339.5,374.6 L314.6,374.6 C312.8,374.6 310.6,373.7 309.4,376 C309.3,376.2 308.5,376.2 308.1,376.1 C304.8,375.5 301.6,373.6 298.1,375.6 C297.8,375.8 297.2,375.5 296.8,375.3 C294.60364,374.131831 291.962094,374.169567 289.8,375.4 C289.063416,375.850478 288.136584,375.850478 287.4,375.4 C286.1,374.4 284.8,374.6 283.4,374.6 C273.1,374.8 262.9,373.8 252.7,375.7 C250.6,376.1 249,374.4 246.8,374.4 C239.8,374.5 232.7,375.4 225.7,374.6 C223.669433,374.449997 221.630567,374.449997 219.6,374.6 C214.1,375 208.4,373.5 203,375.6 C202.371634,375.764629 201.707613,375.729681 201.1,375.5 C197.180943,373.950447 192.819057,373.950447 188.9,375.5 C188.292623,375.75779 187.590938,375.640843 187.1,375.2 C186.2,374.3 185.1,374.5 184,374.5 C181,374.7 178.1,374.3 175.1,375.5 C172.4,376.6 169.5,374.7 166.6,374.6 C161.4,374.5 156.3,374.5 151.1,374.6 C148.9,374.6 146.6,375.4 144.7,375.3 C141.3,375.2 137.9,375.1 134.5,375.3 C133.2,375.4 131.4,374.6 129.8,374.6 C101.8,375.3 73.8,373.2 45.8,375.7 C43.8,375.9 41.6,376.1 39.7,374.8 C38.9826938,374.313645 38.0225912,374.397132 37.4,375 C36.8,375.6 38.2,375.5 38.1,376 C34.4,377.3 30.6,375.8 26.9,376.4 C24,376.9 21.4,375.8 18.7,375.2 C16.9,374.8 15.2,374.3 13.5,375.3 C12.5397641,375.849669 11.3602359,375.849669 10.4,375.3 C7.4,374 4.3,374.2 1.3,374.7 C2.1,379.9 3,385 4,390.2 C94.8,390.2 185.566667,390.166667 276.3,390.1 C297.4,390 318.5,390.8 339.5,390.6 C339.3,388.4 339.1,386.3 339,384.1 Z" id="Shape" fill="#FEFEFE"></path><path d="M503.8,178.5 C501.73916,178.335111 499.732618,177.756955 497.9,176.8 C497.5,176.5 497.2,176.8 496.9,177 C495.4,177.9 494.1,176.8 492.8,176.7 C478.7,175.1 464.5,174.6 450.4,174 C437.6,173.4 424.8,173.2 412,172.8 C398,172.4 384,172.5 370,172.3 C343.4,171.9 316.8,172.2 290.1,172.2 C286.1,172.2 282.2,171.3 278.2,171.7 C272,172.4 265.7,172.2 259.5,172.6 C255.6,172.8 251.6,173.3 247.7,173.3 C246.8,173.3 245.8,173.4 245.7,172.1 C245.6,170.6 246.6,170.5 247.7,170.5 C257.8,170.5 267.9,169.7 278,169.6 C294.6,169.4 311.1,169.4 327.7,169 C334.5,168.8 341.3,168.8 348.1,168.6 C368.2,168.1 388.3,168.4 408.3,169.1 C421.4,169.6 434.6,170.4 447.7,170.8 C454.2,171 460.8,171.1 467.3,171.6 C472.9,172 478.5,172 484.1,172.2 C484.9,171.9 486,171.8 485.5,170.5 C482.6,169.2 479.5,169.6 476.5,169.5 C456.5,168.6 436.6,168 416.6,167.2 C394,166.3 371.3,165.7 348.7,166.3 C325.5,166.9 302.3,167.4 279.1,167.5 C268.4,167.5 257.8,168.2 247.1,168.6 C245.4,168.7 244.7,168.3 244.8,166.3 C244.830786,162.623248 245.064474,158.950996 245.5,155.3 C245.9,152.4 244.7,151 242.1,150.4 C239.956224,149.915593 237.89912,149.10624 236,148 C233.5,146.5 231.1,145.8 228.2,147.2 C226.9,147.9 226.4,148.1 226.7,149.7 C227.8,155.4 227.6,155.5 221.8,154.1 C220.6,153.8 219.1,152.9 218.1,154 C216.8,155.7 215.2,155.2 213.6,155.1 C211.5,155.1 209.3,154.7 207.3,155 C202.2,155.8 197.2,157.4 192,157.7 C190.5,157.8 189.8,158.5 189.9,160 C189.849995,160.832583 189.849995,161.667417 189.9,162.5 C190.2,164.2 189.3,164.5 187.9,164.5 C184.9,164.4 181.8,164.3 178.8,164.5 C169.1,165.1 159.4,165.9 149.6,166.7 C147.5,167.3 145.3,166.3 143.3,167.2 C142.996546,167.183739 142.692484,167.217524 142.4,167.3 C141.456748,167.561763 140.470256,167.629797 139.5,167.5 C136.4,167.7 133.2,167.1 130.1,167.8 C129.7,167.8 129.4,167.9 129,167.9 C128.3,168.2 127.5,167.9 126.8,168.3 C126.5,168.3 126.2,168.4 125.9,168.4 C125,168.9 123.9,168.3 123,168.9 C120.452034,169.647912 118.863727,172.180617 119.3,174.8 C119.5,176.9 120.5,178.7 123,179 C124.650671,179.367099 126.365327,179.332806 128,178.9 C128.303454,178.916261 128.607516,178.882476 128.9,178.8 C129.9,178.3 130.9,178.8 131.9,178.4 C132.4,178.4 132.8,178.3 133.3,178.3 C134.3,177.8 135.4,178.4 136.3,177.8 C139.895371,177.566715 143.500926,177.53333 147.1,177.7 C148.8,177.3 150.6,177.9 152.4,177.2 C153.1,177.2 153.8,177.1 154.6,177.1 C156.4,176.6 158.3,177.3 160.2,176.7 L161.3,176.7 C163.7,177.3 166.3,176.6 168.7,177.1 C169.7,177.1 170.8,177.2 171.8,177.2 C174.4,177.5 177,178.1 179.2,177.8 C177.9,178.4 176.1,178.7 175.1,180.4 C175,180.6 174.9,180.6 174.7,180.5 C173.5,181 172.1,181.1 171.2,182.1 C170.431319,182.349346 169.693297,182.68481 169,183.1 C167.8,183.7 166.7,184.3 165.5,184.8 C164.5,185.5 163.1,185.3 162.4,186.4 C160.9,187.7 158.8,187.8 157,188.8 C156.151425,188.949726 155.337787,189.25484 154.6,189.7 C152.4,190.9 150.3,192 148.1,193.2 C147.243494,193.337826 146.444914,193.719756 145.8,194.3 C144.1,194.2 142.8,195.2 141.3,196 C140.9,196.3 140.5,196.7 139.9,196.6 C138.96002,196.647896 138.070366,197.039344 137.4,197.7 C135.6,199.4 134.6,201.7 132.6,203.2 C131.9,203.4 131.2,203.4 130.8,204.1 C129.8,204.7 128.8,205.3 127.7,206 C126.993059,206.16934 126.339828,206.513146 125.8,207 C124.7,207.5 123.3,207.5 122.5,208.6 C121.8,209.2 121.2,209.8 120.5,210.4 C119.884538,210.383435 119.341858,210.800881 119.2,211.4 C118.5,212 118,212.7 117.2,213.3 C116,214.1 114.2,214.4 113.8,213.1 C112.1,208.2 110.3,203.4 109.7,198.3 C109.663251,196.528054 109.144703,194.799559 108.2,193.3 C107.154517,191.461628 106.539113,189.410283 106.4,187.3 C105.4,184.8 102.4,183.6 98.7,184.4 C98.4,184.4 98.1,184.5 97.8,184.5 C97.2,184.7 96.5,184.5 96,184.9 C95.6,185.1 95.3,185.3 94.9,185.5 C94.4,185.9 93.6,185.4 93.2,186.1 C90.160918,187.452026 87.0173033,188.555635 83.8,189.4 C82.6093213,189.265714 81.415856,189.627371 80.5,190.4 C79.9533703,190.70732 79.3852202,190.974685 78.8,191.2 C73.9,192.9 68.7,193.8 63.9,196.1 C63.0804941,196.344048 62.3043798,196.715233 61.6,197.2 C61.1,197.6 60.2,197.3 59.9,198.2 C58.8182811,198.754545 58.1554623,199.885236 58.2,201.1 C57.6998282,201.966323 57.6998282,203.033677 58.2,203.9 C58.4426987,207.465395 59.4306404,210.940224 61.1,214.1 C61.2057967,215.364703 61.5808512,216.592154 62.2,217.7 C63.1,220.6 64,223.5 65,226.4 C65.2,227.7 65,229.4 67.3,229 C69.1,227.5 68.4,225.6 67.9,223.9 C66.3,218.8 64.8,213.7 62.9,208.7 C62.5,207.6 61.8,206.3 63.8,205.9 C70.7,204.5 76.8,200.7 83.7,199.4 C87.6298281,198.796954 91.5077968,197.894323 95.3,196.7 C98.4,195.7 98.7,195.9 100.1,198.9 C100.376453,199.482327 100.610397,200.083898 100.8,200.7 C106.1,217.2 112.6,233.2 116.5,250.2 C118.2,257.6 120.6,264.9 122.4,272.4 C122.9,274.6 122.5,275.9 120.3,276.7 C117.5,277.7 114.9,279 112.1,280 C109.3,281 109.2,280.9 108.8,278.1 C108.4,275.1 107.7,272.1 107.1,269.2 C106.6,266.9 105.3,265.7 102.9,265.7 C99.8484779,265.654188 96.8198038,266.232699 94,267.4 C90.4853371,268.816137 86.7767542,269.692711 83,270 C79.7,270.4 76.5,271.2 73.2,271.9 C72.1,272.1 70.8,272.4 71,273.8 C71.2,275.2 72.5,275.2 73.7,275.3 C74.1723823,275.282538 74.6416237,275.215504 75.1,275.1 C82.6,273.8 90.3,273.4 97.5,270.4 C98.5408768,270.061357 99.6127988,269.826874 100.7,269.7 C102.4,269.4 103.3,270 103.7,271.7 C104.1,273.8 104.6,275.8 104.9,277.9 C105.2,279.7 104.5,280.6 102.8,281.2 C99.3644522,282.495451 95.8589465,283.597181 92.3,284.5 C92,284.6 91.7,284.6 91.4,284.7 C90.8891573,284.895794 90.3470731,284.997435 89.8,285 C86.6,285.3 84.7,286.8 84.5,290.2 C84.4754316,292.218214 83.0688635,293.955739 81.1,294.4 C80,294.7 78.9,295.2 79.3,296.7 C79.7,298 80.9,298.1 82,298 C84.6473525,297.822001 86.9124581,296.033759 87.7,293.5 C88.1,292.3 88.1,290.9 88.8,289.8 C90.8,288.1 93.5,288.4 95.8,287.5 C97.4,286.9 97.8,287.8 97.4,289.2 C96.7,291.7 97.2,294.1 97.8,296.5 C101.2,309.2 106,321.3 110.8,333.5 C110.871808,333.763481 111.009457,334.004367 111.2,334.2 C111.614281,334.94795 112.458209,335.34982 113.3,335.2 C114.2,335 114.3,334.2 114.4,333.4 C114.399963,332.016465 114.092557,330.650218 113.5,329.4 C112.6,326.6 110.9,324.2 110.2,321.3 C112.8,320.6 113.2,320.3 115.2,316.9 C123.4,303 130.8,288.7 137.9,274.3 C140.3,269.4 140.3,269.4 145.1,271.6 C145.7,271.9 146.3,272.2 146.8,272.4 C147.738594,272.695709 148.505605,273.379233 148.907049,274.277702 C149.308492,275.17617 149.305926,276.203548 148.9,277.1 C148.6,277.9 148.4,278.7 148.1,279.5 C145.9,286 142,291.7 139,297.7 C132.3,310.9 123.7,323.1 116.6,336.1 C113.3,342.1 108.5,347 105.3,353.1 C105.013207,353.81123 104.361526,354.309574 103.6,354.4 C102.5,354.5 102.4,353.4 102,352.7 C100.9,350.1 100.1,347.3 99,344.7 C94.5,333.8 88.5,323.6 84.1,312.7 C83.5,311.6 83,310.6 82.5,309.5 C79.9,304.5 78.6,298.8 74,295 C73,294.2 72.8,292.8 72.4,291.5 C70.3,284.8 68.9,278 67.2,271.2 C66.9,269.8 66.7,268.4 66.5,267 C66.0396878,264.222253 65.2681639,261.505147 64.2,258.9 C61.8386861,253.210949 60.1278311,247.273275 59.1,241.2 C58.5,237.9 59.8,236 62.8,234.7 C65.3868867,233.526008 68.0617284,232.556378 70.8,231.8 C71.1,231.7 71.4,231.7 71.6,231.6 C74.375614,230.952261 77.113154,230.15103 79.8,229.2 C81.6049316,228.552519 83.4882409,228.148953 85.4,228 C87.7,227.9 89.2,228.7 90,231 C90.5,232.5 90.7,234.3 92.1,235.4 C92.8,235.8 93.5,236.1 94.2,235.6 C94.6292667,235.142376 94.8469206,234.52569 94.8,233.9 C94.5,227.3 90.7,223.8 84.1,224.3 C82.9076322,224.378444 81.730818,224.613807 80.6,225 C76.3,226.4 72,227.5 67.7,228.9 C66.9,229.5 65.7,229.4 65.2,230.5 C61.4,232.1 57.3,233.2 55.8,237.8 C55.2999335,239.224042 55.2999335,240.775958 55.8,242.2 C55.8234825,242.368486 55.8568737,242.535442 55.9,242.7 C55.8282074,243.296133 55.969923,243.898425 56.3,244.4 C56.2672866,245.039885 56.3347673,245.680952 56.5,246.3 C58.9,254.3 61.2,262.3 63.6,270.3 C64.2,271.2 63.3,272.4 64.1,273.2 C64.6,275.5 65.2,277.7 65.7,280 C66,280.7 65.8,281.5 66.3,282.1 C66.4641628,283.772291 66.833609,285.418006 67.4,287 C68.1,287.9 67.1,289.1 68,289.9 C68.4426585,292.045084 69.1479738,294.127444 70.1,296.1 C70.4,296.7 70.4,297.4 71.1,297.7 C71.9,298.6 72.6,299.5 73.4,300.4 C74.3899055,301.635402 75.2921109,302.938587 76.1,304.3 C76.3,304.8 76.6,305.3 76.8,305.8 C76.9664263,306.659749 77.3067151,307.476442 77.8,308.2 C81.1,315.6 84.5,322.9 87.8,330.3 C88.1,330.9 88,331.7 88.8,332 C89.3660008,333.531957 90.1399119,334.978834 91.1,336.3 C91.2226781,337.142007 91.5678945,337.936005 92.1,338.6 C93.6,342.2 95.1,345.7 96.6,349.3 C97.1,350.3 96.9,351.6 97.7,352.5 C98.1,353.4 98.5,354.2 98.9,355.1 C99.0849302,355.954055 99.4237873,356.767312 99.9,357.5 L100.1,357.6 L100.1,357.8 C100.6,359.1 101.3,359.8 102.8,359.2 C105.2,357.6 108.1,356.3 109.1,353.4 C110.4,349.9 112.9,347.2 114.9,344.2 C116.195428,343.202553 117.169113,341.846349 117.7,340.3 C118.012046,339.286017 118.560423,338.360631 119.3,337.6 C120.1,337.3 120.2,336.6 120.4,335.9 C120.4,334.7 121.4,334 121.9,333.1 C122.8,332.6 122.7,331.6 123.1,330.9 C123.254924,329.840872 123.745652,328.859417 124.5,328.1 C125.9,327.5 126,326.1 126.4,324.9 C126.693597,323.848722 127.24334,322.886671 128,322.1 C129.2,321.7 129.3,320.6 129.7,319.7 C130.60783,317.820696 131.714126,316.043918 133,314.4 C133.9,314.2 134,313.4 134.1,312.7 C134.670904,312.209222 135.058655,311.53947 135.2,310.8 C136.2,310 135.7,308.4 136.8,307.7 C137.6,307.2 137.6,306.2 138,305.5 C138.630655,304.555028 139.166582,303.550165 139.6,302.5 C140.033934,300.98206 140.746008,299.557911 141.7,298.3 C142.5,297.8 142.6,296.9 142.9,296.1 C142.7,295.1 143.6,294.6 144.1,293.9 C145.9,292.6 146.3,290.5 147.3,288.8 C147.386796,288.321274 147.520783,287.85232 147.7,287.4 C147.7,287.5 147.6,287.7 147.6,287.8 C147.379205,288.680122 147.112167,289.547993 146.8,290.4 C146.435138,292.378519 146.26765,294.38838 146.3,296.4 L146.4,296.6 L146.3,296.7 C145.6,297.6 146.4,298.7 145.8,299.6 C145.2,300.5 145.3,301.3 145.2,302.3 C144.4,303.2 145.2,304.3 144.7,305.3 C143.6,306.8 144.7,308.5 144,310.1 C143.735877,311.183011 143.568552,312.287357 143.5,313.4 L143.5,313.9 C142.9,315 143.6,316.3 143,317.5 C143.016261,317.803454 142.982476,318.107516 142.9,318.4 C142.3,319.7 143,321.2 142.4,322.6 C142.617299,323.221915 142.581383,323.904331 142.3,324.5 C141.8,325.6 142.4,326.9 141.9,328 C141.9,328.5 141.8,329 141.8,329.5 C141.3,330.4 141.8,331.5 141.4,332.5 C141.4,332.8 141.3,333.1 141.3,333.4 C140.6,334.5 141.4,335.8 140.8,337 C140.821318,337.27069 140.787293,337.542886 140.7,337.8 C140,339.1 140.8,340.6 140.2,342 C140.2,342.4 140.1,342.9 140.1,343.3 C139.6,344.2 140.2,345.3 139.6,346.2 C139.102614,347.366342 138.896683,348.636247 139,349.9 C138.534047,351.143858 138.362897,352.478827 138.5,353.8 C138.5,354.3 138.4,354.9 138.4,355.4 C137.9,356.3 138.5,357.4 137.9,358.3 C137.1,359.4 137.8,360.8 137.2,362 C136.6,362.9 137.3,364.1 136.8,365 C136.8,365.6 136.7,366.3 136.7,366.9 C136.485749,367.508997 136.41725,368.15974 136.5,368.8 C136.4,372.7 136.4,372.7 132.5,372.7 L1,372.7 C0.984238298,372.905148 1.0185559,373.111053 1.1,373.3 C1.18490785,374.008362 1.31855815,374.710026 1.5,375.4 C114.1,375.4 226.733333,375.433333 339.4,375.5 C339.484474,374.65958 339.618036,373.824821 339.8,373 L299.5,373 C301.158167,369.589935 301.33901,365.647551 300,362.1 C298.3,356.8 295.3,352.2 293.1,347.1 C287.2,333.4 281.6,319.6 273.8,306.8 C271.2,302.6 269.2,298 266.9,293.6 C266.5,292.8 266,292.2 266.9,291.2 C271.4,285.7 270.6,284 266.6,278.1 C261,270 255.4,261.9 250.8,253.2 C246.075561,244.257433 240.65905,235.698009 234.6,227.6 C233.042055,225.43493 230.779382,223.879343 228.2,223.2 C222.5,221.8 217,221.4 211.6,224.4 C209.5,225.6 208.1,224.7 208.1,222.4 C208.1,220.1 208.2,217.8 208.3,215.5 C208.5,210.2 206.1,207.6 200.8,207.2 C198.7,207 196.6,206.9 194.5,206.7 C193.8,206.3 193.6,207.2 192.9,207.2 C193.6,206.9 193.5,206.2 193.9,205.7 C197.5,202.7 201.5,200.4 204.6,196.8 C205.891553,195.211738 207.763073,194.203996 209.8,194 C213.337472,193.502504 216.843297,192.801339 220.3,191.9 C225.6,190.5 225.6,190.4 225.3,196 C225.2,197 224.9,198.1 226.3,198.5 C231.5,200.1 236.6,201.8 241.8,203.3 C243.6,203.8 244.3,202.8 244.3,201 C243.9,193.8 244.9,186.7 245.3,179.5 C245.4,178.4 245.5,177.9 246.8,177.8 C255.7,177.4 264.6,176.4 273.6,176.4 C302,176.3 330.3,176.8 358.7,176.7 C403.7,176.6 448.6,178 493.5,180.3 C496.8,180.5 500.3,179.8 503.6,181.3 C504.6,180.6 504.1,179.4 503.8,178.5 Z M141.6,251.7 C139.833646,254.832712 138.263946,258.072306 136.9,261.4 C136.4,262.6 136.2,263.8 137.4,264.6 C138.8,265.6 138.4,266.7 137.8,267.9 C133.9,275.6 130,283.3 125.9,290.9 C121.7,298.7 117.3,306.3 112.9,314 C112.5,314.6 112.5,316.5 110.7,315.2 C110.3,314.9 110.1,315.7 110,316.1 C109.838927,317.093774 109.255379,317.969096 108.4,318.5 C106.3,314.2 105.1,309.6 103.5,305.2 C102.1,301.4 100.8,297.6 99.6,293.7 C98.7,290.7 100.2,287.8 100.6,284.8 C100.8,283.6 103.9,282.7 105.6,283.2 C107.061138,283.721932 108.66349,283.686324 110.1,283.1 C116.3,280.7 122.4,278.3 128.6,275.8 C130.4,275.1 130.6,273.6 130.6,271.9 C130.4,267.3 129.2,262.8 128.3,258.3 C127.869867,257.189606 128.289657,255.930235 129.3,255.3 C131.2,253.8 132.9,252.2 133.5,249.7 C133.646401,249.368259 133.890628,249.089142 134.2,248.9 C138.2,246 142.3,243.1 147,239.8 C145.68217,243.968268 143.869227,247.963458 141.6,251.7 Z M209.7,365.2 C213.7,363.1 218,362.5 222.2,361.3 C228.9,359.5 235.2,360.7 241.7,362.1 C244.1,362.6 246.5,363.1 248.9,363.7 C249.4,363.8 250,364.1 249.6,363.1 C248.3,362.5 247,361.9 245.8,361.3 C245.5,360.7 246,360.6 246.3,360.3 C258.7,359.5 270.5,355.8 282.2,351.8 C283.8,351.3 286.7,351 286.3,348.8 C286.2,347.9 283.4,349.7 281.8,350.2 C269.4,354 257,357.5 243.9,358.7 C239.891476,359.054617 235.853158,358.852701 231.9,358.1 C228.7,357.5 225.7,358.7 222.6,359.1 C217.6,359.6 217.8,359.6 218.2,354.7 C220.7,327.3 224.4,300 225.1,272.4 C225.2,268.2 225.1,264 225.1,259.7 C226.5,259.6 226.5,260.6 226.8,261.1 C233,272.2 240.7,282.4 246.4,293.7 C246.6,294.2 247,294.9 247.4,295 C250.7,295.5 250.7,298.3 251.3,300.5 C254,309.6 258.9,317.6 262.9,326.1 C266.4,333.4 269.7,340.8 273.9,347.7 C274.2,348.2 274.5,348.8 274.9,349.4 C275.05673,349.699393 275.343462,349.909157 275.676256,349.967885 C276.009049,350.026614 276.35026,349.927663 276.6,349.7 C277.088195,349.362748 277.220929,348.699077 276.9,348.2 C276.7,347.9 276.6,347.5 276.4,347.2 C269.3,335.2 264.2,322.3 257.5,310.1 C254.9,305.3 253.9,299.9 251.5,295 C251,294.1 251.8,293.9 252.1,293.5 C254.4,290.7 257.7,289 260.6,286.9 C261.8,286 261.9,287.1 262.3,287.8 C271.7,307.9 283.3,326.9 291.1,347.7 C292.9,352.4 295.6,356.7 297.5,361.4 C298.8,364.7 297.9,367.5 296.9,370.3 C296.6,371.2 294.5,371.8 292.8,371.8 C283.2,371.7 273.6,371.8 264.1,371.8 L226.6,371.8 C228.3,370.3 230.5,370.2 231.7,368.1 C228.4,367.8 226.1,370.5 223.2,370.2 C218.8,372.4 214,371.2 209.4,371.5 C208.5,371.6 208.6,370.7 208.3,370.2 C206.6,368 207.1,366.6 209.7,365.2 Z" id="Shape" fill="#020203"></path><path d="M339.4,389.3 L3.9,389.3 C4.5,392.6 5.2,396 5.9,399.3 L125.1,399.3 C127.4,399.3 271,399 340.9,398.8 C340.205334,395.667151 339.704384,392.494472 339.4,389.3 Z" id="Shape" fill="#020203"></path><path d="M223.6,99.5 C229.1,95.7 234.6,91.9 239.9,87.6 C238.4,86.7 237.4,87.5 236.4,87.5 C235.4,87.5 234.1,87.4 233.6,86.2 C233.222826,85.2122379 233.50237,84.0940609 234.3,83.4 C236.716045,80.632083 239.471054,78.1794526 242.5,76.1 C246.9,73.2 250.5,69.4 254.3,65.3 C253,64.9 251.6,65.3 251.2,64.1 C250.8,62.9 251.6,61.8 252.3,60.9 C255.303312,57.3127664 258.652832,54.0302368 262.3,51.1 C267.7,46.7 273.2,42.3 278.6,37.9 C279.132082,37.3796463 279.738746,36.9414999 280.4,36.6 C281.4,36.1 282.4,35.4 283.4,36.4 C284.4,37.4 283.7,38.5 283,39.4 C281.6,41.2 280.1,43 278.7,44.8 C278.2,45.5 277.3,46.1 277.8,47.6 C278.7,46.9 279.5,46.3 280.3,45.7 C288.4,39.1 296.6,32.5 305.3,26.6 C306.72517,25.5533909 308.432858,24.9609278 310.2,24.9 C311,24.9 311.9,24.6 312.5,25.5 C312.954912,26.3453365 312.745048,27.3946555 312,28 C308.965832,31.584717 305.691626,34.9591535 302.2,38.1 C295.4,44.1 287.6,48.7 280.6,54.3 C279.3,55.3 276.9,56.1 280.2,57.9 C281.4,58.5 281,60.1 280.4,61.2 C278.212379,65.1283076 274.536421,68.0114122 270.2,69.2 C267.5,70 267.8,67.9 267.9,65.5 C261.4,71.6 254.2,76.2 247.4,81.3 C247.7,81.6 247.7,81.8 247.8,81.8 C249.6,82 251.6,82.3 252.1,84.2 C252.7,86.3 250.7,87.2 249.4,88.2 C241.8,94.1 231.3,103.1 225.9,105.1 C220.5,107.1 223.6,99.5 223.6,99.5 Z" id="Shape" fill="#E1371A"></path><path d="M210.4,116.1 C209.6,116.7 208.6,117 208.7,118.3 C209,121.3 207.2,122.8 204.8,124 C192,130.6 178.6,135.6 164.2,137.5 C158.6,138.2 152.9,139.1 147.2,139.7 C145.020831,140.167069 142.764019,140.132875 140.6,139.6 C139.6,138.5 140.1,137.7 141,136.9 C141.6,136.2 141.2,135.4 141,134.7 C140.5,133.8 141.1,132.7 140.5,131.8 L140.6,131.6 L140.5,131.4 C140.02277,130.158571 139.884707,128.812457 140.1,127.5 C140,127 140,126.4 139.9,125.9 C139.4,124.6 139.6,123.3 139.4,122 C139.415762,121.794852 139.381444,121.588947 139.3,121.4 C138.8,120.5 139.4,119.4 138.8,118.5 C138.4,116.2 138,113.8 137.6,111.5 C137,110.6 137.7,109.5 137.1,108.7 C136.689286,108.044333 136.513023,107.268779 136.6,106.5 C135.8,105.7 136.3,104.7 136,103.8 C135,102.2 135.3,100.3 135,98.5 C135,98.2 134.9,98 134.9,97.7 C134.1,96.9 135.1,95.8 134.4,95 C134.4,94.4 134.8,93.8 134.4,93.3 C133.9,92.4 134.5,91.3 133.9,90.4 C133.9,90.1 133.8,89.7 133.8,89.4 C133.1,88.4 134,87.1 133.3,86 C132.7,85.4 133,84.5 132.8,83.8 C132.8,83.4 132.7,83.1 132.7,82.7 C132.2,81.7 132.7,80.6 132.2,79.6 L132.2,77.8 C132.9,76.7 132,75.5 132.7,74.4 C132.6,73 133.6,72.3 134.4,71.5 C135,70.9 134.5,70.2 134.4,69.6 C134,69.2 133.7,68.8 133.3,68.4 C132.579949,67.6536346 132.215667,66.6336451 132.3,65.6 C132.3,65.4 132.2,65.2 132.2,65 C132,63.4 130.9,61.8 131.7,60 C131.683375,59.1321321 131.716764,58.2640271 131.8,57.4 C132.4,55.4 131.6,53.2 132.3,51.2 C132.3,50.7 132.4,50.2 132.4,49.8 C132.816905,47.9187269 132.782637,45.9654916 132.3,44.1 C131.9,44 131.4,44 131.1,43.5 C129.558757,42.75576 128.271601,41.5729684 127.4,40.1 L127.3,40.2 L127.4,40.1 C126.3,39.8 125.8,38.8 125,38.1 C123.7,35.9 123.8,35.9 127,35.4 C128.228549,35.7621036 129.555298,35.5409788 130.6,34.8 C129.7,33.7 130,32.4 130.1,31.1 C130.2,29.8 130.9,29.1 132.3,29.8 C133.3,30 134.2,30 134,28.6 C133.6,26.9 131.9,25.8 131.8,23.9 C132.7,22 133.9,23.1 135,23.6 C135.2,23.7 135.3,23.8 135.5,23.9 C136.7,24.2 138.2,25.1 139.2,24.7 C140.5,24.2 139.7,22.5 139.8,21.3 C140.2,18.4 141.5,16.7 144.4,16.3 C146.031093,16.0434502 147.537619,15.2726695 148.7,14.1 C157.7,6.2 168.3,3 180.1,2.8 C182.7,2.7 185.4,3.4 187.6,0.7 C188.9,-0.9 192.7,0.4 193.3,3.1 C194.2,7.2 196.8,9.4 199.7,12 C205.4,17.1 207.5,24.3 208.9,31.6 C209.3,33.4 209.6,35.1 211,36.5 C212.9,38.5 212,40.7 210.8,42.6 C209.6,44.5 209.5,46.1 211.1,47.9 C212.107464,49.2247571 212.947174,50.6690585 213.6,52.2 C214.4,53.6 214,54.4 212.3,54.1 C210.1,53.6 209.7,54.5 209.3,56.6 C208.8,59.1 209.6,60.9 210.6,63 C213.2,68.7 215.1,74.6 211.2,80.6 C210,82.4 210.3,85.2 208.2,86.3 C205.9,87.5 204.2,85.1 202.2,84.5 C201.929863,84.4383752 201.646656,84.4737762 201.4,84.6 C201.8,86.5 202.4,88.3 202.7,90.2 C203.4902,94.1693062 204.836822,98.0071773 206.7,101.6 C207.9,104.3 208.1,107.3 208.6,110.6 L210.4,116.1 Z" id="Shape" fill="#020203"></path><path d="M298.1,101.5 C296.7,99 295.1,100 293.4,100.9 C291.261166,102.193436 288.979172,103.233757 286.6,104 C285.6,104.3 284.5,104.9 283.7,103.5 C282.9,102.1 284,101.5 284.8,100.8 C292.313944,95.1828453 300.47168,90.4829152 309.1,86.8 C310,86.4 311.1,86.1 311.9,87.1 C312.732767,88.0672391 312.77448,89.4854889 312,90.5 C311.32407,91.496293 310.391083,92.2910605 309.3,92.8 C307.6,93.7 306,94.7 304.3,95.6 C304.460491,95.866343 304.727098,96.051459 305.032732,96.1087653 C305.338365,96.1660716 305.653924,96.0901116 305.9,95.9 C325.7,88.3 345,79.9 363.1,68.8 C370.021652,64.6140597 377.202851,60.8731562 384.6,57.6 C387.1,56.5 389.7,56.2 392.2,55.3 C393.029103,55.0648172 393.915623,55.387188 394.4,56.1 C395,56.8 394.6,57.5 394.3,58.1 C393.327247,59.6735607 391.944475,60.9526247 390.3,61.8 C377,69.7 362.5,75.3 348.7,82.1 C338.8,86.9 329,92.2 318.8,96.3 C306.7,101.2 295.3,107.7 283.2,112.5 C282.4,112.8 281.4,113.7 280.7,112.7 C279.8,111.5 281.1,110.9 281.9,110.3 C286.3,106.9 291.7,105.3 296.4,102.3 C297.002268,102.116675 297.57486,101.84722 298.1,101.5 Z" id="Shape" fill="#E1371A"></path><path d="M283.8,74 C292.258966,67.6551885 301.037114,61.7474614 310.1,56.3 C310.558276,55.9860691 311.065029,55.7495846 311.6,55.6 C312.9,55.2 314.4,53.5 315.6,54.9 C317,56.6 315.2,58 314.1,59.1 C308.358486,64.553768 302.132842,69.4740349 295.5,73.8 C288.1,78.9 280.5,83.8 273,88.8 C272.1,89.4 271,90.1 270,89.2 C268.8,88.2 269.5,87 270.1,86 C271.2,84 272.4,82 274.6,81 C273.4,79 272.3,78.7 270.6,80.4 C269.3,81.7 267.6,82.4 266,83.4 C265.4,83.8 264.8,84.1 264.2,83.6 C263.647493,83.0747316 263.562448,82.2242743 264,81.6 C264.343637,80.9700504 264.782093,80.3966845 265.3,79.9 C269.519866,75.4136391 273.993898,71.1733247 278.7,67.2 C279.474312,66.5790959 280.355403,66.1046623 281.3,65.8 C282.560034,65.3378682 283.974305,65.7419454 284.8,66.8 C285.6,67.9 284.5,68.8 284.2,69.8 C283.9,70.8 281.6,70.9 283.2,72.4 C283.7,72.8 283.5,73.3 283.4,73.8 C283.2,74.8 283.8,73.8 283.8,74 Z" id="Shape" fill="#E1371A"></path><path d="M169.3,155.1 C168.1,155 166.4,154.9 166,153.1 C165.6,151.3 166.9,150.6 168.2,150.1 C171.6,148.8 175,147.2 178.6,146.5 C179.6,146.3 180.7,146.1 181.3,147.2 C181.9,148.3 181.1,149.1 180.4,149.9 C178.3,152.5 173.1,155 169.3,155.1 Z" id="Shape" fill="#E1371A"></path><path d="M187.9,140.1 C188,137.3 191.4,134.5 194.2,134.7 C196.2,134.9 197.1,135.9 197,138 C196.7,141.4 194.3,143.8 191.1,143.7 C188.8,143.6 187.9,142.3 187.9,140.1 Z" id="Shape" fill="#E1371A"></path><path d="M266.6,101 C265.3,101.1 264.7,100.9 264.2,100.2 C263.7,99.5 264.2,98.7 264.7,98.2 C267.178315,95.8789317 270.206766,94.2270494 273.5,93.4 C274.9,93 275.8,94.1 274.9,95.3 C272.8,98.4 269.6,99.9 266.6,101 Z" id="Shape" fill="#E1371A"></path><path d="M497.9,176.8 L497.2,177.5 C496.527107,177.532774 495.853079,177.465371 495.2,177.3 C492.3,176 489.3,174.8 486.5,173.3 C485.7,172.9 484.5,172.6 484.5,171.3 C485.1,171.2 485.6,171 485.7,170.3 C489.3,173.1 493.9,174.4 497.9,176.8 Z" id="Shape" fill="#1F1F1F"></path><path d="M193.8,205.5 C193.002714,206.537541 191.606191,206.907209 190.4,206.4 C191.44995,205.958344 192.401703,205.312512 193.2,204.5 C193.421916,204.819684 193.622357,205.153752 193.8,205.5 Z" id="Shape" fill="#616060"></path><path d="M502.8,180.2 C504.4,180.4 503.6,179.1 503.9,178.5 C504.5,178.4 505.4,178.1 505.1,179.1 C504.8,179.7 504.4,181.8 502.8,180.2 Z" id="Shape" fill="#B5B5B5"></path><path d="M29.6,374.8 C29.9,374.9 30.4,374.9 30.3,375.4 C30.2,375.9 29.8,375.9 29.4,375.8 C29,375.7 28.6,375.7 28.7,375.2 C28.8,374.7 29.2,374.7 29.6,374.8 Z" id="Shape" fill="#FEFEFE"></path><path d="M5.1,395.6 L17.1,395.6 C106.4,395.6 178.8,395.4 178.8,395.2 C178.8,395 106.4,394.8 17.1,394.8 L4.9,394.8 C5,395.1 5,395.3 5.1,395.6 Z" id="Shape" fill="#303030"></path><path d="M340.1,394.8 L286.6,394.8 C232,394.8 187.8,394.9 187.8,395.1 C187.8,395.3 232,395.4 286.6,395.4 L340.2,395.4 C340.2,395.2 340.1,395 340.1,394.8 Z" id="Shape" fill="#2E2E2E"></path><path d="M167.7,395.7 C165.9,395.5 163.9,396.1 162.1,394.6 L169.3,394.6 C169.5,396.1 168,395 167.7,395.7 Z" id="Shape" fill="#1F1F1F"></path><path d="M167.7,395.7 C168.2,395.3 168.8,395 169.3,394.6 L172.2,394.6 C170.8,396 169.2,395.7 167.7,395.7 Z" id="Shape" fill="#111111"></path><path d="M138.9,372 C142.1,349.9 144.1,327.8 147.5,305.9 C150,289.4 152.2,272.9 153.9,256.3 C154,254.9 154.1,253.5 154.1,252.2 C154.1,251.7 154.3,251 153.5,250.9 C152.7,250.8 152.8,251.6 152.7,252.1 C152.2,255.7 151.7,259.4 151.3,263.1 C151,265.4 150.8,267.7 150.5,270.2 C147.1,268.5 143.5,267.4 140.7,264.8 C139.3,263.5 138.9,262.5 139.7,260.6 C142,255.1 145.8,250.2 147.5,244.5 C148.671663,239.960831 151.728737,236.139488 155.9,234 C157.377748,233.318579 158.918355,232.782716 160.5,232.4 C162.7,231.6 164.2,229.7 165.8,228 C167.055894,226.582633 168.464426,225.308247 170,224.2 C171.1,231.4 175.7,235.3 182.1,237.5 C192.6,241.1 200.9,238.7 207.2,229.4 C210,225.3 213.8,224.4 217.9,223.6 C221,223 223.9,223.8 226.9,224.5 C229.153216,225.01355 231.122539,226.374173 232.4,228.3 C238.13689,235.945955 243.253196,244.038412 247.7,252.5 C252.659229,261.74557 258.308579,270.604017 264.6,279 C266.3,281.3 265.8,282.6 263.2,283.4 C259,284.8 255.5,287.6 252.3,290.5 C249.1,293.4 249,293.6 246.9,289.6 C242.6,281.5 237.2,274.1 232.5,266.4 C228.3,259.5 224.9,252.1 219.9,245.7 C219.3,245 219.1,243.3 217.9,244 C217,244.5 217.9,245.9 218.4,246.7 C220.2,249.7 222,252.7 223.9,255.6 C224.6,256.7 225.5,257.7 224,259.1 C223.5,259.5 223.7,260.7 223.7,261.5 C222.9,280.2 222,298.8 219.7,317.4 C218.1,330.3 217.1,343.2 216,356.2 C215.8,358.9 215,360.3 212,360.7 C207.3,361.2 202.7,362.7 198.1,364.2 C192.9,365.9 187.4,365.8 182,366.6 C178.4,367.1 177.9,367.4 177.9,371.1 C177.9,372.2 177.5,372.2 176.7,372.2 C164,372 151.6,372 138.9,372 Z" id="Shape" fill="#FEFEFE"></path><path d="M67.7,228.8 L67.1,228.2 C68.2,226.8 67.7,225.4 67.2,224 C65.4,218.4 63.6,212.8 61.7,207.2 C61.1,205.4 61.5,204.7 63.4,204.4 C66.3908744,203.958108 69.2932546,203.046895 72,201.7 C78.4,198.7 85.4,197.8 92.2,196.1 C92.9,195.9 93.6,195.8 94.3,195.6 C99,194.2 99.3,194.1 100.9,198.8 C105.9,214.2 112.3,229.1 115.8,244.9 C117.8,254 120.9,262.9 123.2,272 C123.8,274.4 123.4,275.5 120.9,276.4 C116.7,277.9 112.7,280 108,281.2 C108.1,276.8 106.8,272.7 106.1,268.5 C105.7,266.1 104.4,265.2 102.1,265.6 C100.4,265.9 98.5,265.8 97,266.5 C89.3,269.8 80.8,270 72.8,271.9 C72.1,272.1 70.8,271.9 71,273.1 C71.2,273.9 72.4,274 73.2,273.8 C80,272.4 87.2,272.6 93.8,270 C96.3109683,269.134829 98.8853892,268.466148 101.5,268 C102.9,267.7 103.7,268.2 103.9,269.7 C104.4,272.5 104.9,275.3 105.5,278.1 C105.719593,278.671025 105.66575,279.31115 105.353856,279.83747 C105.041963,280.363791 104.506328,280.718409 103.9,280.8 C99.9,282.1 96,283.8 91.8,284.5 C91.6999598,283.669669 91.6999598,282.830331 91.8,282 C92,278.8 94.1,277.3 97.3,278.1 C100.9,279 101.6,278.4 100.8,274.6 C100.1,271.3 99.9,271.2 97,271.6 C95.7365019,271.616166 94.7161661,272.636502 94.7,273.9 C94.6,275.8 93.4,276.3 91.7,276.5 C89.867973,276.73251 88.0103009,276.664959 86.2,276.3 C84.2269387,275.884178 82.1963723,275.816492 80.2,276.1 C78.3769292,276.415952 76.5103805,276.382015 74.7,276 C73.2,275.5 72.6,276.2 72.8,277.7 C73.2165366,279.79907 73.0786701,281.970467 72.4,284 C72.104536,285.279832 72.5255106,286.619296 73.5,287.5 C74.2,288.2 74.9,288.9 75.6,289.7 C77.4,291.7 77.7,291.5 79.6,289.5 C81,287.9 82.9,286.9 83.6,284.6 C83.9,283.5 88.8,282.3 90,282.7 C90.8,283 91.8,283.4 91.1,284.7 C90.6921166,284.926502 90.2545387,285.094802 89.8,285.2 C86.3,285.4 84.5,287 84.5,290.6 C84.5,293.1 83,294.4 80.5,294.6 C79.8,294.7 78.8,294.7 78.8,295.6 C78.8,296.5 79.8,296.7 80.7,296.8 C83.3235418,296.960529 85.7177531,295.309349 86.5,292.8 C86.9,291.3 86.8,289.7 87.7,288.4 C89.9,290.2 91.4,292.2 89.7,295.2 C89.1,296.2 90,297.3 90.1,298.4 C90.6,302.6 89.9,303.3 85.4,302.5 C86.3,306.2 86.4,309.6 83.3,312.3 C80.891531,308.251185 78.9140616,303.961081 77.4,299.5 C76.9146181,298.445994 76.1099743,297.571381 75.1,297 C72.7,295.4 71.7,292.9 71,290.3 C69.3,283.8 67.8,277.3 66.2,270.8 C67.8,269.4 69.7,268.7 71.8,269.6 C73.2,270.2 74.1,269.9 74.3,268.3 C74.6,266 76.1,265.3 78.2,265.3 C81.5,265.3 84.8,264.4 88.1,265.1 C89.5008237,265.394886 90.9452622,264.848341 91.8,263.7 C89.2,263.4 86.9,262.4 84.4,263.2 C83.6060454,263.517858 82.7343904,263.58759 81.9,263.4 C77.7,262.5 73.4,264.1 69.1,263.2 C68.1,263 67.6,263.8 67,264.4 C66.4,265 66.2,266.1 65.4,266.6 C63.4,258.3 59.7,250.6 58,242.2 C57,237.2 57.9,234.9 62.6,233.1 C65.2,232.1 67.6,230.8 70.4,230.5 C72.0208722,231.510062 72.6237103,233.576935 71.8,235.3 C70.8,237.4 68.9,237.3 67,236.9 C66.5789164,236.752847 66.1429849,236.652248 65.7,236.6 C65,236.5 64.1,236.4 63.9,237.4 C63.7,238.4 64.7,238.5 65.4,238.5 C69.2,238.6 73,239 76.9,238.4 C77.8,238.3 78.4,238.1 78.7,237.1 C79.6,234.2 81.5,233.2 84.5,234 C84.9,234.1 85.4,234.3 85.8,234.4 C86.6,234.6 87.4,234.4 87.5,233.5 C87.6,232.4 86.7,232.5 86,232.4 C82.2,232.3 78.3,233.1 74.5,232.1 C73.1202543,231.960439 71.8394961,231.32006 70.9,230.3 C74.6,229.2 78.2,227.9 81.9,227 C87.6,225.5 88.8,226.2 90.9,231.7 C91.2,232.6 91.6,233.4 91.9,234.2 C93.3,235.9 92.7,236.6 90.8,237.2 C82.4,239.9 74.2,243.6 65.4,245.2 C71.1542888,244.627573 76.8051636,243.282127 82.2,241.2 C83.9,240.5 85.5,239.6 87.5,239.8 C89.2,240.4 90.4,241.6 90.1,243.5 C89.8,245.4 88,245.8 86.2,245.8 C85.5653433,245.866583 84.924161,245.832836 84.3,245.7 C82.5,245.2 81.1,245.2 80.8,247.6 C80.6,249 79.3,249.2 78.1,249.5 C74.3,250.3 70.4,249.8 66.6,250.2 C66.1346735,250.149984 65.6653265,250.149984 65.2,250.2 C64.7,250.2 64.3,250.4 64.3,251 C64.3,251.6 64.7,251.6 65.1,251.6 C67.1,251.6 67.6,252.7 67.9,254.5 C68.3,256.8 70.4,256.1 72,256.1 C73.6,256.1 75.2,255.6 75.6,257.8 C74.8,259.3 73.2,259 71.9,259.3 C70.9425337,259.473528 70.0046183,259.741504 69.1,260.1 C76.9,259.3 84.6,258.5 92,255.6 C92.3,255.5 91.9,255.6 92.3,255.5 C100,252.6 101.1,253.3 102,261.5 C102.1,262 101.9,262.6 102.2,263.1 C103.2,260.7 102.3,255.3 100.2,253.3 C99.2693342,252.410127 98.7298486,251.187293 98.7,249.9 C98.3862195,246.315936 97.6132239,242.787043 96.4,239.4 C96.0568351,238.027721 95.1484676,236.865011 93.9,236.2 C93.1,235.8 92.4,235.2 93.6,234.4 C93.8656473,231.002607 92.6645053,227.653969 90.3,225.2 C88.1,222.9 84.6,223.6 81.7,224.3 C77.1610742,226.171682 72.4794134,227.676502 67.7,228.8 Z" id="Shape" fill="#FEFEFE"></path><path d="M83.7,312.3 C83.8,311.9 83.7,311.3 84,311 C87,308 85.2,304.6 84.9,301.3 C85.1,301.2 85.3,301.1 85.3,301.2 C86.6,302 87.9,302.9 89.4,302.1 C90.9,301.3 89.3,299.8 89.7,298.6 C90,297.7 88.8,296.4 89,296.1 C91.1,293.1 89.4,290.8 88,288.4 C91.1,287.5 94.1,286.6 97.2,285.8 C98.3,285.5 98.6,286.1 98.3,287 C96.4,292.3 98.6,297.1 100.1,302 C102.840353,311.16956 106.07849,320.18293 109.8,329 C110.4,330.3 110.7,331.8 111.2,333.2 C111.5,333.9 111.9,334.7 112.7,334.5 C113.8,334.2 113.6,333.3 113.4,332.5 C112.5,328.7 110.5,325.3 109.2,321.7 C109,321.2 108.8,320.7 108.5,319.8 C112,321 112.9,318.4 114.2,316.3 C123,301.4 130.9,286.1 138.6,270.6 C139.028278,269.555517 139.395562,268.487053 139.7,267.4 C142.080992,269.254904 144.749625,270.707451 147.6,271.7 C150.6,273 149.9,275.3 149.2,277.5 C148.268774,280.471915 147.063601,283.35094 145.6,286.1 C139.7,296.8 134.3,307.8 127.6,318 C122,326.5 117.8,335.9 111.7,344.1 C109.9,346.5 107.4,348.6 106.6,351.2 C105.8,353.5 104.4,354.3 102.6,355.7 C100.7,351 99.1,346.4 97.2,342 C93.1,332.4 87.8,323.3 84,313.5 C83.9366092,313.091728 83.8361951,312.690071 83.7,312.3 Z" id="Shape" fill="#FEFEFE"></path><path d="M484.5,171.3 C488.2,173.1 491.9,175 495.6,176.8 C495.4,178.1 494.5,177.4 493.9,177.4 C463.6,174.8 433.2,174 402.8,173.5 C372,173 341.3,172.7 310.5,173 C298,173.1 285.5,172.3 272.9,172.7 C264.2,173 255.6,173.4 247,174.2 C245.3,174.4 244.3,174.1 244.7,172.1 C244.9,170.7 244,168.9 247.1,169.1 C255.6,169.5 264.2,168.9 272.8,168.7 C283.8,168.4 294.9,168.4 305.9,168.3 C327.4,168 348.8,167.4 370.3,167.2 C391.8,167 413.6,168.2 435.2,169.2 C448.9,169.8 462.6,170.1 476.3,170.6 C479,170.9 481.7,171.1 484.5,171.3 Z" id="Shape" fill="#FEFEFE"></path><path d="M165.8,224.1 C165.3,210.2 158.3,201.2 145.4,196.6 C148.283753,194.941355 151.25472,193.439181 154.3,192.1 C164,188.3 173,183.1 182.6,179 C184.087334,178.210832 185.885084,178.287332 187.3,179.2 C189.3,180.4 191.4,181.2 193.4,182.4 C197.7,185 200.7,188.6 200.9,193.9 C201.012828,195.025307 200.467943,196.115078 199.5,196.7 C188,205.5 177,215 165.8,224.1 Z" id="Shape" fill="#FEFEFE"></path><path d="M183.2,217.1 C185.614952,217.783512 188.16746,217.818005 190.6,217.2 C195.7,216.2 201,215.7 205.9,212.4 C205.6,217.3 205.4,221.9 206.2,226.4 C206.3,226.8 205.9,227.4 205.6,227.9 C202.126807,232.855687 196.781065,236.178715 190.8,237.1 C183.4,238.3 173.4,230.9 171.8,223.6 C171.5,222.4 172.2,222 172.9,221.4 C174.9,219.7 176.9,217.9 178.9,216.2 C180,215.3 180.1,216.3 180.1,217 C180.065847,218.208955 179.932061,219.413035 179.7,220.6 C179.5,221.9 179.5,223.4 180.7,224.1 C182.831362,225.193784 184.316117,227.235323 184.7,229.6 C184.9,227.2 185.1,225.1 182.1,224.1 C180.3,223.5 179.5,219.1 180.7,217.5 C181.4,216.6 182.3,216.8 183.2,217.1 Z" id="Shape" fill="#FEFEFE"></path><path d="M217.5,175.2 C217.2,176.7 217,178.3 216.7,179.8 C216.412956,181.250355 216.587823,182.754206 217.2,184.1 C217.4,184.6 217.8,185.2 218.5,184.9 C219,184.7 218.9,184.1 218.8,183.7 C217.9,178.6 219.7,174.4 222.6,170.3 C223.535849,169.044835 224.774358,168.047147 226.2,167.4 C228.7,166.2 230.9,164.2 233.2,162.6 C233.9,166.9 231.1,180.9 228.8,184.1 C227.5,185.9 225.3,186.7 223.4,187.5 C217.6,189.9 211.3,190.2 205.2,191.5 C204.5,191.7 203.5,191.8 203.1,190.7 C200.8,183.8 195.4,180.2 189.2,177.5 C188.936519,177.428192 188.695633,177.290543 188.5,177.1 C188.6,175.7 189.5,176.6 190.1,176.5 C198.4,176 206.7,175.5 215.1,176.1 C216,176.2 217,176.3 217.2,174.9 C217.1,174.9 217.3,174.9 217.5,175.2 Z" id="Shape" fill="#FEFEFE"></path><path d="M61.2,203.3 C60.3,201.2 61.1,200 62.9,199 C66.2126755,197.37468 69.6586342,196.036443 73.2,195 C81.2,192.5 89.2,190.2 96.9,186.8 C97.8236116,186.414914 98.8024209,186.178649 99.8,186.1 C102.3,185.7 104,186.7 104.7,189.2 C107.7,199.7 110.5,210.3 113.6,220.8 C115.7,227.8 118,234.6 120.5,241.5 C123.9,250.9 127,260.3 128.4,270.1 C128.483152,270.729727 128.516589,271.365024 128.5,272 C128.6,273.2 128.2,274 127,274.2 C125.6,274.4 126,273.1 125.9,272.5 C122.2,258 118.6,243.4 114,229.2 C110.4,217.8 106.7,206.5 102.1,195.5 C100.5,191.7 99.7,191.6 95.7,192.7 C91.9180497,193.832988 88.0794837,194.767596 84.2,195.5 C76.5,196.8 69.7,200.6 62.4,203 C61.9874361,203.040517 61.5830936,203.141602 61.2,203.3 Z" id="Shape" fill="#FDFDFD"></path><path d="M127.6,254.8 C127.36603,254.524091 127.164697,254.222091 127,253.9 C123.3,241.6 118.1,229.7 114.9,217.3 C114.7,216.7 114.2,216 114.9,215.5 C115.2,215.3 116,215.5 116.4,215.7 C126.3,219.1 132.3,225.9 133.1,236.5 C133.5,243.1 132.7,249.6 127.6,254.8 Z" id="Shape" fill="#FEFEFE"></path><path d="M238.8,199 C235.2,197.9 231.8,196.8 228.4,195.8 C227.2,195.5 226.8,194.9 226.9,193.6 C227.1,190.6 227.2,188.1 229.7,185.5 C233.3,181.9 233.7,176.5 234.4,171.6 C235,168.1 235.2,164.5 236.3,161 C236.9,159.3 236.4,158.1 234.5,157.8 C234.050996,157.677349 233.61547,157.509839 233.2,157.3 C227.4,155 228.6,156.4 228.6,150.3 C231.8,152.1 235.2,152.8 238.5,153.8 C239.129465,153.935071 239.676896,154.320408 240.016409,154.867401 C240.355922,155.414395 240.4583,156.075971 240.3,156.7 C239.603182,160.866422 239.20218,165.076946 239.1,169.3 C239.1,170.8 238.8,172.2 239.9,173.5 C240.118474,173.895989 240.189346,174.356655 240.1,174.8 C237.9,182.9 239,190.9 238.8,199 Z" id="Shape" fill="#FDFDFD"></path><path d="M91.5,284.7 C91.1,283.2 90.1,282.6 88.8,283.3 C87.8449236,283.809228 86.7822249,284.083473 85.7,284.1 C84.5,284.3 83.5,285.1 83.8,286.4 C84.1,287.9 83.9,288.6 82.2,288.6 C81.1,288.6 80.6,289.4 80.2,290.5 C79.6,292.4 78,292.7 76.5,291.4 C75.1660142,290.199335 73.9288419,288.895289 72.8,287.5 C71.5455821,286.215899 71.3002659,284.25337 72.2,282.7 C73.1,281.3 72.7,279.3 72.1,277.6 C71.5,275.9 72.8,274.4 74,275 C76.8,276.4 79.4,275.4 82,275.3 C85.4,275.1 88.6,276.5 92,275.9 C93.5,275.6 94.2,275.3 94,273.8 C93.9,272.6 94.3,271.2 95.4,271.2 C97.3,271.1 100,270 100.8,271.4 C101.9,273.3 101.9,276 101.6,278.3 C101.4,279.7 99.6,280.2 97.9,279.5 C94.1,277.9 92.3,279.1 92.4,283.1 C92.4,283.9 92,284.2 91.7,284.7 C91.8,284.6 91.6,284.6 91.5,284.7 Z" id="Shape" fill="#FEFEFE"></path><path d="M88.1,240.4 C82.3,242 76.8,244.8 70.8,245.6 C69.3,245.8 67.7,246.2 66.2,246.4 C65.5,246.5 64.5,246.8 64.3,245.9 C64,244.8 65.1,245 65.7,244.7 C65.9,244.6 66,244.5 66.2,244.5 C75.2,243 83.5,239 92.2,236.5 C94.4,235.9 91.8,235 92.5,234.3 C93.0522002,234.512403 93.6207348,234.679619 94.2,234.8 C94.5,235.1 93.3,235.9 94.5,236 C96.5,236.2 97.3,237.6 97.7,239.3 C98.7,243.3 100.3,247.2 100,251.4 C100,251.8 99.8,252.1 100.2,252.4 C104.5,254.8 103.5,259.3 104.3,263 C104.455809,263.545164 104.334589,264.132075 103.975548,264.570903 C103.616507,265.009731 103.065222,265.24477 102.5,265.2 C101.4,265.1 101.7,264.1 101.8,263.1 C101.903464,260.516293 101.389238,257.945166 100.3,255.6 C99.7,254 98.2,254.8 97.2,255.1 C93.2,256.3 89.3,258.1 85.1,259 C80,260.1 74.7,260.7 69.5,261.3 C68.8,261.4 67.8,261.8 67.6,260.8 C67.3,259.6 68.5,259.5 69.2,259.4 C71.4,258.9 73.7,258.5 75.9,258 C77,257 78.4,257 79.8,256.8 C84.8842661,256.000191 89.8534921,254.590005 94.6,252.6 C96.0970439,252.211217 97.0226076,250.712685 96.7,249.2 C96.4090009,246.473092 95.8050245,243.788752 94.9,241.2 C94.5,239.8 93.5,239.4 92.1,239.7 C90.7,240 89.5,240.6 88.1,240.4 Z" id="Shape" fill="#030304"></path><path d="M65.9,266.5 C66.3,263.1 68,261.9 71.2,262.8 C71.7,262.9 72.4,263.2 72.8,262.9 C76.1,260.9 79.6,263.2 82.8,262.5 C85.5138716,262.067436 88.2763868,262.033746 91,262.4 C91.9,262.5 93.1,262.4 93.2,263.5 C93.3,264.6 92.4,264.9 91.4,265.3 C90.4026762,265.769081 89.2821031,265.909153 88.2,265.7 C84.6,264.7 81.2,266.2 77.6,265.9 C76.1,265.8 75.6,266.9 75.4,268.2 C75,271.3 74.7,271.6 72.1,270.1 C69.9,268.9 68.5,270.9 66.6,270.7 C66.1090718,269.355301 65.8717271,267.931232 65.9,266.5 Z" id="Shape" fill="#FEFEFE"></path><path d="M139.9,199.1 C143.7,197.8 146.7,199.2 149.6,200.5 C156.8,203.8 160.4,210.3 163.2,217.1 C164.3,219.8 162.8,223 163.6,226.1 C163.8,226.9 162.4,227.8 161.2,228.5 C161.9,221.6 159.5,215.9 155.3,210.7 C151.3,205.6 146.9,201.1 139.9,199.1 Z" id="Shape" fill="#FBFBFB"></path><path d="M71.4,230.4 C76.3,232.6 81.5,232.1 86.6,231.6 C87.5,231.5 88.5,231.4 89,232.5 C89.3498627,233.293961 89.1479095,234.222946 88.5,234.8 C87.8,235.6 87.1,236 86.1,235.3 C84.8531009,234.500805 83.3207977,234.281905 81.9,234.7 C80.2,235.1 79.4,235.9 79.8,237.5 C80.1,238.7 79.7,239.2 78.5,239.3 C74.2369955,239.550001 69.9630045,239.550001 65.7,239.3 C64.8,239.3 63.8,239.4 63.3,238.4 C63,237.7 62.8,236.8 63.5,236.3 C64.2501722,235.578353 65.3777734,235.417267 66.3,235.9 C66.8129439,236.126011 67.3496376,236.293728 67.9,236.4 C69.2,236.7 70.5,236.9 71.4,235.6 C72.2758078,234.47113 72.2339687,232.881244 71.3,231.8 C71.1,231.4 71,231 70.8,230.5 C71.1,230.3 71.3,230.3 71.4,230.4 Z" id="Shape" fill="#FEFEFE"></path><path d="M224.6,165.9 C221.3,165.1 218.5,163.1 215.6,161.7 C215.4,161.6 215.1,161.3 215.1,161.1 C214.8,159.7 219.4,155.5 220.9,155.7 C225,156.3 228.7,158.1 232.5,159.4 C233.2,159.6 234.2,160.1 233.1,160.7 C230.5,162 228.5,164 226.1,165.5 C225.714439,165.903848 225.135452,166.058245 224.6,165.9 Z" id="Shape" fill="#FDFDFD"></path><path d="M159.1,224.2 C159.7,227.1 159.4,229.2 156.7,230.8 C149.217406,235.501158 141.974997,240.574181 135,246 C134.3,242.7 136.2,241.3 138.2,239.5 C144.7,233.7 152.2,229.6 159.1,224.2 Z" id="Shape" fill="#FBFBFB"></path><path d="M132,220.5 C131.8,221.2 130.5,221.8 131.5,222.6 C132.2,223.2 133.1,222.4 133.7,222 C139.8,218.1 146.1,214.5 151.9,210.1 C154.7,213.4 154.6,213.4 151.1,215.7 C145.2,219.6 138.7,222.6 133.3,227.5 C132.2,225.6 131.2,223.9 130.2,222.2 C130.2,220.9 130.2,219.8 132,220.5 Z" id="Shape" fill="#FCFCFC"></path><path d="M156.1,218.8 C149.4,223.9 141.7,227.6 135.3,233.5 C133.9,231.1 133.9,229.4 136.3,227.5 C142.1,223.1 148.6,219.8 154.5,215.7 C156.7,214.1 156.4,216.9 157.1,217.8 C157.6,218.8 156.3,218.3 156.1,218.8 Z" id="Shape" fill="#FCFCFC"></path><path d="M132,220.5 C130.7,220.2 130.9,221.6 130.3,222.1 C129.6,221.5 128.9,221 128.2,220.4 C127,218.9 128.7,218.5 129.3,218 C133.1,214.7 137.4,212 141.5,209 C142.897881,208.089089 144.234119,207.086911 145.5,206 C146.2,205.3 146.9,204.9 147.9,205.7 C151.1,208.7 151.1,208.7 147.4,211 C142.2,214.1 137.1,217.3 132,220.5 Z" id="Shape" fill="#FCFCFC"></path><path d="M208.2,370.3 C208.9,371.3 209.9,371.4 211.1,371.4 C215.1,371.3 219.2,371.6 223.1,370.4 C221.8,372.4 219.7,372 217.8,372 L198.3,372 C197.2,372 195.9,372.4 195.4,370.7 C194.864963,369.285497 195.410662,367.690375 196.7,366.9 C200.019151,364.944177 203.687434,363.653485 207.5,363.1 C208.1,362.9 208.3,363.2 208.2,363.8 C204.9,365.9 204.2,368 206.1,370.3 C206.4,370.7 207.3,372.3 208.2,370.3 Z" id="Shape" fill="#FCFCFC"></path><path d="M210.8,168.8 C211.141469,166.859897 211.747099,164.975715 212.6,163.2 C212.9,162.5 213.3,162.4 214.1,162.8 C216.6,164.2 219.2,165.6 221.8,167 C222,167.1 222.3,167.3 222.3,167.5 C222.5,168.2 218.4,173.2 217.6,173 C215.7,172.4 213.8,171.8 211.9,171.1 C210.986537,170.740833 210.506224,169.736542 210.8,168.8 Z" id="Shape" fill="#FCFCFC"></path><path d="M142.2,202.4 C135.4,206.7 128.5,210.1 122.6,215.3 C121.9,215.9 121.8,215.8 118.9,214.3 C120.469389,212.75729 122.13975,211.320779 123.9,210 C128.1,207.3 132.3,204.8 136.7,202.4 C138.381248,201.343926 140.518752,201.343926 142.2,202.4 Z" id="Shape" fill="#FAFAFA"></path><path d="M216.4,156.3 C211.9,158.9 210.7,162.9 209.4,166.7 C208.7,168.6 207.8,168.9 206.2,168.6 C204.3,168.3 204.5,166.9 204.8,165.7 C205.5,162.9 206.3,160.2 207,157.5 C207.3,156.4 208.1,156.4 208.9,156.4 C211.1,156.3 213.4,156.3 216.4,156.3 Z" id="Shape" fill="#FCFCFC"></path><path d="M156.1,218.8 L157.2,217.7 C158.9,219.9 159.2,221.8 156.6,223.6 C155.4,224.4 154.2,225.4 153,226.2 C146.939452,229.878783 141.246599,234.131679 136,238.9 C135.2,235.9 135.4,236.1 137,234.7 C142.9,229.7 149.9,226.1 155.9,221.3 C156.7,220.7 158.7,219.8 156.1,218.8 Z" id="Shape" fill="#F8F8F8"></path><path d="M126.3,218.8 C125.6,218.1 124.8,217.5 124,216.7 C127.981017,213.41829 132.229108,210.474731 136.7,207.9 C138.5,206.8 140.5,205.9 142,204.4 C143.5,202.9 144.7,202.8 146.1,204.4 C146.2,205.9 144.7,206.2 143.9,206.8 C138.5,210.6 132.8,213.9 127.9,218.4 C127.4,218.8 126.9,219.1 126.3,218.8 Z" id="Shape" fill="#FAFAFA"></path><path d="M159.5,167.6 C156.1,171.1 153.7,174.7 148.7,174.7 C148.00997,174.755133 147.326442,174.532823 146.800863,174.082327 C146.275283,173.63183 145.951049,172.990344 145.9,172.3 C146.1,171 146.1,168.7 147.9,168.6 C151.5,168.5 155.1,167.3 159.5,167.6 Z" id="Shape" fill="#FBFBFB"></path><path d="M124.9,170.3 C128,169.9 130.4,169.8 132.7,169.3 C135.2,168.8 135.1,170.8 135.4,172.2 C135.7,173.6 135.6,175.2 133.5,175.4 C131.4,175.6 128.9,176.7 127,176.1 C124.5,175.3 127.1,172.1 124.9,170.3 Z" id="Shape" fill="#FBFBFB"></path><path d="M180,170.9 C181.3,169.6 183,168.7 183.3,166.7 C183.5,165.8 184.1,165.9 184.8,165.9 C185.630331,165.79996 186.469669,165.79996 187.3,165.9 C188.3,166.1 189.6,164.9 190.3,166.1 C191,167.3 189.9,168.4 189.3,169.3 C188.810633,170.087719 188.203607,170.795915 187.5,171.4 C183.8,175.2 183.1,175.1 180,170.9 Z" id="Shape" fill="#FAFAFA"></path><path d="M182.2,166 C181.4,168.5 179.5,169.7 177.4,170.6 C176.373383,171.181332 175.303559,171.682812 174.2,172.1 C173.4,172.3 172.7,174.4 171.6,172.6 C170.9,171.4 169.2,170.5 171.2,168.5 C172.7,167 174,166.1 176.1,166.2 C178,166.2 180,165.5 182.2,166 Z" id="Shape" fill="#FAFAFA"></path><path d="M126.3,218.8 C132.3,213.2 139.5,209.3 146.1,204.5 C146.8,204.7 147.6,204.9 147.9,205.7 C147.6,205.6 147.1,205.4 146.9,205.5 C141.3,210.9 134.4,214.5 128.4,219.3 C127.8,219.8 128.2,220 128.2,220.4 C127.318461,220.261373 126.586624,219.645089 126.3,218.8 Z" id="Shape" fill="#09090A"></path><path d="M199.3,164.6 C199.5,163.1 199.6,161.5 199.9,160 C200.049925,159.000428 200.60982,158.108628 201.444932,157.539233 C202.280044,156.969839 203.314742,156.774417 204.3,157 C205.4,157.2 204.9,158 204.8,158.5 C204.1,161.4 202.7,164.2 202.6,167.3 C202.5,168.6 201.4,168 200.6,168.1 C199.8,168.2 199.2,167.9 199.3,166.8 C199.400052,166.070079 199.400052,165.329921 199.3,164.6 Z" id="Shape" fill="#F9F9F9"></path><path d="M183.2,217.1 C182.6,217.7 180.9,216 181,218 C181.1,220 179.5,222.3 182.3,223.6 C183.3,224.1 185,223.7 185.3,225.2 C185.615123,226.983155 185.782359,228.7893 185.8,230.6 C185.809736,231.082761 185.473123,231.503526 185,231.6 C184.3,231.7 184,231.3 183.8,230.7 C183.523223,230.03509 183.387035,229.320099 183.4,228.6 C183.5,226.9 182.8,226 181.1,225.5 C179.533082,225.054546 178.545669,223.50903 178.8,221.9 C178.847316,220.164966 179.150587,218.446429 179.7,216.8 C180,215.6 179.3,216.3 178.9,216.3 C180.7,214.8 181.7,217.1 183.2,217.1 Z" id="Shape" fill="#0A0B0B"></path><path d="M170.8,166.6 C168.921422,169.192884 166.407573,171.259061 163.5,172.6 C161.2,173.6 161,171 160,170.1 C159.5,169.6 160.3,167.7 161.8,167.5 C164.7,167.1 167.5,166.9 170.8,166.6 Z" id="Shape" fill="#FAFAFA"></path><path d="M137.2,174.7 C137.283237,173.802542 137.316621,172.901157 137.3,172 C137.2,171.2 137,170.4 136.8,169.5 C139.2,169.3 141.5,169.2 143.9,169 C145.1,168.9 145.5,169.4 144.9,170.4 C143.2,173.2 141.4,175.9 137.2,174.7 Z" id="Shape" fill="#F7F7F7"></path><path d="M197.8,158.5 C197.499975,160.116963 197.33275,161.755764 197.3,163.4 C197.5,165.6 196.2,165.8 194.6,165.7 C193.7,165.6 192.4,166.6 192.2,165 C192,163.1 191.3,161 192.5,159.5 C193,158.8 194.9,159.1 196.2,158.9 C196.6,158.8 197.1,158.7 197.8,158.5 Z" id="Shape" fill="#F8F8F8"></path><path d="M206.4,170.8 C204.2,174.1 204.1,174.1 195.1,174.3 C198.5,169.6 200.4,169 206.4,170.8 Z" id="Shape" fill="#F6F6F6"></path><path d="M197,168.7 C196.4,170.9 194.8,172.3 193,173.7 C191.7,174.7 191.2,173.4 190.5,173 C189.2,172.2 189.9,169.5 191.7,168.5 C193.1,167.7 194.7,168 196.3,167.7 C197,167.5 196.9,168.1 197,168.7 Z" id="Shape" fill="#F7F7F7"></path><path d="M193.7,372 C191.8,372 190.4,372.1 188.9,372 C188.2,371.9 186.9,372.8 186.8,371.2 C186.7,370 186.7,368.7 188.1,368.2 C189.945708,367.441161 191.906973,367.001567 193.9,366.9 C193.13495,368.500191 193.062612,370.344811 193.7,372 Z" id="Shape" fill="#F8F8F8"></path><path d="M185.5,367.7 C185,369.2 184.6,370.5 185.4,372 C183.8,372 182.5,372.1 181.2,372 C180.6,371.9 179.4,372.6 179.4,371.2 C179.4,370.1 179.2,368.7 180.8,368.3 C182.355268,368.019059 183.924032,367.818791 185.5,367.7 Z" id="Shape" fill="#F3F3F3"></path><path d="M210.1,174.1 L205.5,174.1 C206.3,173 206.9,172.3 207.3,171.6 C207.8,170.6 208.3,171 209,171.4 C210.3,172.2 211.7,172.9 213.1,173.6 C212.3,175.1 211.1,174.1 210.1,174.1 Z" id="Shape" fill="#EDEDED"></path><path d="M180.3,174.5 L172.9,174.5 C176.5,171.3 178.2,171.4 180.3,174.5 Z" id="Shape" fill="#F1F1F1"></path><path d="M170.8,174.6 C168.5,174.4 166.6,174.3 164.6,174.1 C168.6,171 168.6,171 170.8,174.6 Z" id="Shape" fill="#E7E6E6"></path><path d="M267.3,284.8 C266.6,286.4 266.1,287.6 265.5,288.8 C265.322059,289.082832 265.082832,289.322059 264.8,289.5 C264.2,288.2 263.6,287.1 262.9,285.8 C264.4,285.5 265.6,285.2 267.3,284.8 Z" id="Shape" fill="#E4E4E5"></path><path d="M161.4,174 L155.3,174 C156.6,172.8 157.7,171.9 158.8,170.9 C159.5,171.8 160.2,172.7 161.4,174 Z" id="Shape" fill="#E2E2E2"></path><path d="M210.1,174.1 C211,173.7 212.2,174.4 213,173.6 C213.6,173.8 214.1,173.9 214.7,174.1 C214.8,174.6 214.7,174.9 214.1,174.7 C212.7445,174.696675 211.39682,174.494523 210.1,174.1 Z" id="Shape" fill="#CACACA"></path><path d="M493.8,177.4 C494.3,177 495.2,177.5 495.5,176.8 C496,177 496.6,177.2 497.1,177.4 C496.1,178.6 494.9,177.7 493.8,177.4 Z" id="Shape" fill="#A8A8A7"></path><path d="M189.3,174.5 C188.4,174.6 187.6,175 187,174.2 C186.8,173.9 187.2,173.5 187.5,173.4 C188.8,172.6 188.7,173.9 189.3,174.5 Z" id="Shape" fill="#C6C6C6"></path><path d="M142.7,175.3 C143.9,173.8 144.7,173.5 145.6,174.7 C144.9,175.6 144,175 142.7,175.3 Z" id="Shape" fill="#A4A4A5"></path><path d="M214.1,174.7 L214.7,174.1 C215.735334,174.117572 216.729557,174.50816 217.5,175.2 L216.9,175.2 C216,175 215,175.2 214.1,174.7 Z" id="Shape" fill="#7C7C7C"></path><path d="M246.3,360.4 C246.074668,360.700624 245.9053,361.03936 245.8,361.4 C245.011988,361.543737 244.227659,361.130932 243.9,360.4 L246.3,360.4 Z" id="Shape" fill="#CECECE"></path><path d="M147.9,289.1 C147.6,288.6 148,287.8 147.3,287.4 C147.5,286.9 147.6,286.3 147.8,285.8 C148.3,285.6 148.5,285.8 148.4,286.3 C148.3,287.2 148.5,288.3 147.9,289.1 Z" id="Shape" fill="#C6C6C6"></path><path d="M189.9,176.7 C189.4,177 188.7,176.5 188.3,177.3 C188.12692,177.354671 187.938575,177.330751 187.784655,177.234552 C187.630736,177.138352 187.526702,176.979535 187.5,176.8 C187.4,176.3 187.8,176.2 188.2,176.3 C188.783302,176.348702 189.35618,176.483497 189.9,176.7 Z" id="Shape" fill="#636262"></path><path d="M148.5,286.3 C148.325793,286.104614 148.123598,285.936117 147.9,285.8 C147.8,285.2 148.2,284.4 148.6,284.6 C149.3,284.9 149,285.7 148.5,286.3 Z" id="Shape" fill="#393939"></path><path d="M249.5,363.1 C250.1,363.2 251,363.5 250.6,364.1 C250.2,364.7 249.3,364.3 248.8,363.7 C249.053929,363.525361 249.28858,363.324232 249.5,363.1 Z" id="Shape" fill="#2B2B2B"></path><path d="M208.1,363.7 L207.4,363 C208,362.4 208.7,362.6 209.4,362.5 C209.4,363.5 208.7,363.5 208.1,363.7 Z" id="Shape" fill="#AFAFB0"></path><path d="M196.5,72.3 C198.5,73.7 199.9,73.5 200.3,70.8 C202.8,72 204.1,73.5 202.7,76.2 C202.5,76.7 202.3,77.4 203,77.6 C203.7,77.8 204.1,77.2 204.5,76.7 C206,74.1 205.5,72.2 202.7,70.2 C201.8,69.5 200.5,69.2 201,67.5 C201.177509,66.7924305 201.706339,66.2258271 202.4,66 C203.2,65.7 203.6,66.2 204,66.7 C204.8,67.8 205.7,68.9 206.6,70 C206.9,70.4 207.2,70.8 207.7,70.5 C207.951098,70.3773814 208.131937,70.1461963 208.190488,69.8729616 C208.249038,69.599727 208.178806,69.3147408 208,69.1 C207.2,68 206.4,66.9 205.6,65.9 C205.8,65.1 206.5,65.4 207,65.1 C207.5,64.8 208.2,64.5 207.8,63.6 C207.5,63 206.9,63.2 206.3,63.4 C205.522833,63.6618945 204.717094,63.8297568 203.9,63.9 C201,64 199.4,65.3 199.2,68.4 C199.1,69.2 199.7,71.2 197.6,70.8 C195.8,70.5 196.1,69.1 196.3,67.8 C196.4,67.3 196.4,66.9 196.5,66.4 C196.9,64.9 196.1,63.1 197.5,62 C199.495468,60.3521955 201.864708,59.2190807 204.4,58.7 C205.418221,58.3974218 206.508108,58.8585278 207,59.8 C209.683823,63.7906563 211.427565,68.3380596 212.1,73.1 C212.1489,74.4885367 211.838921,75.8662229 211.2,77.1 C210.5,78.6 209.8,80.1 209.2,81.6 C207.8,85.1 206.5,85.3 203.8,82.6 C202.8,81.6 202.2,79.2 200.3,80.3 C198.4,81.4 200.1,83.2 200.4,84.5 C201.1,88.3 202.2,92 203.1,95.8 C203.3,96.6 203.9,97.3 202.5,97.8 C195.3,100.2 189.2,104.8 182.4,108.1 C180.730254,109.03946 178.782099,109.358249 176.9,109 C169.69498,107.516156 162.356199,106.778927 155,106.8 C153.065193,106.67161 151.124711,106.943958 149.3,107.6 C145,109.3 143.3,111.9 144.3,116.4 C145.2,120.4 145.7,124.6 147.4,128.4 C148.3,130.3 148,131.4 146.4,132.5 C145.481678,133.206212 144.612965,133.974689 143.8,134.8 C142.6,130.2 142.6,125.7 141.8,121.3 C139.8,110.3 137.7,99.2 135.8,88.2 C134.94987,84.1576479 134.747346,80.0059026 135.2,75.9 C135.4,74.3 135.6,72.9 137.8,74.4 C139.8,75.8 142.2,75.4 144.6,75.2 C144.4,77.5 143.2,79.2 142.4,81.1 C140.9,84.3 141.5,86.7 144.7,88.2 C147.9,89.7 151.2,90.8 154.4,92.1 C155.2,92.4 155.9,92.3 156.2,91.5 C156.5,90.7 155.7,90.2 155,90 C152.5,89.1 150,88.3 147.5,87.4 C143.3,85.9 142.9,84.8 144.7,80.7 C146.664262,75.9403866 148.334078,71.0645244 149.7,66.1 C149.9,65.4 150.4,64.6 149.5,63.7 C147.8,65 148.3,67.4 147,69 C144.2,66.3 140.7,66.5 137.3,66.8 C136.6,66.9 135.7,68.4 135.2,66.7 C134.8,65.3 133.4,64 135.1,62.5 C137.2,60.6 139.6,61.5 141.9,61.9 C142.7,62 144,63.3 144.2,61.4 C144.4,59.9 145.2,57.9 142.8,57.3 C140.599014,56.6900787 138.361055,56.2224455 136.1,55.9 C134.8,55.7 134.3,55.4 134.4,54.1 C134.7,51.3 134.4,48.3 135.1,45.6 C135.997976,42.5605386 138.306329,40.140491 141.3,39.1 C147.806079,36.5312402 154.638504,34.8820341 161.6,34.2 C167.8,33.6 173.9,35.7 179.9,37.8 C180.5,38 180.8,38.3 180.7,39 C180.716589,39.6349764 180.683152,40.2702732 180.6,40.9 C179.140502,45.572789 180.640419,50.6646142 184.4,53.8 C185.3,54.6 185.3,55.8 185.5,56.9 C186.9,62 188.2,67.2 189.6,72.3 C190.8,76.5 192,77 196.1,75 C196.5,73.8 195.9,72.9 196.5,72.3 Z" id="Shape" fill="#FEFEFE"></path><path d="M182.1,4.8 C183.6,4.3 187,6.1 188.8,2.7 C189.1,2.2 189.8,2.3 190.3,2.7 C190.8,3.1 191.2,3.3 191.3,3.6 C191.5,9.6 197,11.6 200.1,15.4 C204.2,20.4 205.8,26.4 207.1,32.6 C207.5,34.4 207.8,36.2 209.2,37.5 C210.2,38.5 209.6,42 208.5,42.7 C207.9,43 207.7,42.7 207.4,42.3 C196.7,32.2 183.6,28.3 169.4,26.7 C164.1,26.1 158.9,25 153.6,24.4 C150.7,24.1 147.9,24.5 145.1,24.3 C144.2,24.2 142.7,25.6 142.5,23.6 C142.4,21.9 141.8,19.2 144,18.8 C148,18 150.7,15.4 153.6,13.2 C161.6,7.1 171.1,5.4 182.1,4.8 Z" id="Shape" fill="#4153A0"></path><path d="M133.4,43.1 C131.1,41.1 129.3,39.4 127.4,37.7 C132.3,37.1 132.3,37.1 132.6,32.1 L137.9,33.6 C138.5,33.7 139.3,33.9 139.6,33.1 C139.9,32.3 139.1,32.3 138.6,32 C136.3,30.9 137,28.3 135.1,26.4 C137.8,26.3 139.6,27.5 141.6,27.8 C142.6,27.9 143.7,28.7 144.2,26.9 C144.4,26 145.4,26.5 146.1,26.5 C150.797611,26.3483435 155.49672,26.7511243 160.1,27.7 C168.2,29.3 176.5,29.8 184.5,32.1 C193.341343,34.7515768 201.383276,39.5629895 207.9,46.1 C209.4,47.6 210.3,49.8 211.6,51.8 C208.5,52.3 207.3,54.2 207.7,57.1 C204,56 197.1,57.8 195.5,61 C194.033679,64.1625599 193.749839,67.7460355 194.7,71.1 C195.2,73.3 194.5,74.2 192.6,74 C191.3,73.8 191.4,72.7 191.2,72 C189.8,67.2 188.4,62.5 187.3,57.6 C186.6,54.6 185.6,51.8 183.4,49.6 C181.7,47.9 181.5,46 181.8,43.8 C182.7,37.1 182.7,37.1 176.5,34.7 C168.8,31.8 161,30.9 153,33.3 C151.507125,33.8189395 149.966139,34.1874361 148.4,34.4 C142.3,35.2 136.8,37.4 133.4,43.1 Z" id="Shape" fill="#FEFEFE"></path><path d="M151.2,109 C151.558341,108.893689 151.927172,108.826629 152.3,108.8 C156.9,108.4 157.3,108.8 157.1,113.3 C157,114.7 157.1,116.1 154.9,116.3 C152.7,116.5 152.1,115.5 151.8,113.7 C151.6,112.1 151.4,110.6 151.2,109 Z" id="Shape" fill="#FAFAFA"></path><path d="M150,109.4 C150.4,111.5 150.8,113.5 151.1,115.6 C151.3,117.3 150.1,117.9 148.8,118.1 C147.5,118.3 146.4,118.4 145.9,116.5 C145.1,113.4 146.2,110 150,109.4 Z" id="Shape" fill="#F8F8F8"></path><path d="M161.1,108.8 C162.7,109 164.8,108.1 164.4,111.1 C164,114.1 163.1,115.4 160.4,115 C156.8,114.5 158.8,111.5 158.5,109.8 C158.1,107.3 160.4,109.5 161.1,108.8 Z" id="Shape" fill="#F9F9F9"></path><path d="M137.8,72.4 C136.630222,71.5562855 136.248441,69.9867425 136.9,68.7 C137.5,67.3 138.8,67.8 139.8,67.7 C141.261234,67.4901221 142.752031,67.6981403 144.1,68.3 C145.3,68.9 146.2,69.7 146,71.3 C145.8,72.9 144.7,72.7 143.7,73 C142.7,73.3 142.4,73.1 142.3,72.1 C142.1,70.9 141.5,69.7 140.1,69.7 C138.4,69.7 138.2,71.2 137.8,72.4 Z" id="Shape" fill="#F7F7F7"></path><path d="M155.1,121.9 C154.9,123.3 154.4,124.6 152.8,124.5 C152.0042,124.473916 151.251413,124.132543 150.707464,123.551082 C150.163516,122.96962 149.873032,122.19577 149.9,121.4 C149.8,119.9 151.1,119.3 152.3,119.4 C153.5,119.5 155,120.2 155.1,121.9 Z" id="Shape" fill="#F7F7F7"></path><path d="M158.3,127.7 C157.1,127.5 155.8,127 155.7,125.5 C155.613096,124.93882 155.791638,124.369093 156.183272,123.957878 C156.574906,123.546662 157.135251,123.340558 157.7,123.4 C158.8,123.6 160.4,124 160.5,125.6 C160.506507,126.17655 160.273399,126.729933 159.856322,127.128052 C159.439245,127.526171 158.875624,127.733301 158.3,127.7 Z" id="Shape" fill="#F0F0F0"></path><path d="M167.2,127.6 C166.9,128.8 166.4,129.9 164.9,129.9 C163.6,129.9 162.7,129.3 162.7,128 C162.573169,127.386664 162.74098,126.749331 163.15341,126.277983 C163.565839,125.806635 164.175256,125.555708 164.8,125.6 C166.001148,125.532766 167.049532,126.406419 167.2,127.6 Z" id="Shape" fill="#F1F1F1"></path><path d="M165.9,112.9 C166.8,111.8 164.6,109.3 167.5,109.3 C168.3,109.3 169.8,108.8 169.8,110.5 C169.8,112.9 167.8,112.9 165.9,112.9 Z" id="Shape" fill="#ECECEC"></path><path d="M183.7,113.9 C183.2,114.9 183.4,116.6 181.6,116.5 C180.7,116.5 179.7,115.9 179.9,114.8 C179.961209,113.500849 180.918019,112.419237 182.2,112.2 C183.2,112.1 183.7,112.8 183.7,113.9 Z" id="Shape" fill="#ECECEC"></path><path d="M177.9,115.3 C177,115.1 176,114.7 176.2,113.6 C176.197866,112.4554 176.985449,111.460558 178.1,111.2 C178.513389,111.07878 178.960056,111.177162 179.284263,111.460842 C179.608469,111.744523 179.765273,112.174178 179.7,112.6 C179.6,113.7 179.3,114.9 177.9,115.3 Z" id="Shape" fill="#D8D8D8"></path><path d="M176.2,110.7 C175,112.4 173.8,112.8 172.1,112.4 C171.2,112.2 171.3,111.7 171.4,111 C171.5,110.3 171.7,109.8 172.6,110 C173.7,110.2 174.8,110.4 176.2,110.7 Z" id="Shape" fill="#E0E0E1"></path><path d="M179.4,122.9 C180.5,121.8 181.8,121.4 184,120.9 C182.750061,122.087609 181.121024,122.795886 179.4,122.9 Z" id="Shape" fill="#0F1010"></path><path d="M189.2,116.8 C189.8,115.5 191,115.1 192.1,114.6 C191.6,115.9 190.4,116.3 189.2,116.8 Z" id="Shape" fill="#212121"></path><path d="M177,120.1 C176.7,121.2 175.9,121 175.4,121.6 C175.4,120.2 176.3,120.4 177,120.1 Z" id="Shape" fill="#131414"></path><path d="M167.9,116.6 C167.7,116.7 167.4,116.9 167.2,116.8 C167.065802,116.783661 166.953014,116.691497 166.910263,116.563246 C166.867513,116.434994 166.902446,116.29359 167,116.2 C167.2,116.1 167.5,116.1 167.7,116 C167.8,116.1 167.8,116.4 167.9,116.6 Z" id="Shape" fill="#161616"></path><path d="M196.5,72.3 C196.4,73.1 197.1,74 196,74.6 C196.5,73.8 195.5,72.9 196.1,72.1 L196.3,72.1 C196.4,72.1 196.4,72.2 196.5,72.3 Z" id="Shape" fill="#B3B2B2"></path><path d="M157,295.4 C157.3,290.1 158.2,284.8 158.9,279.5 C159,278.8 159.1,277.8 160,277.9 C161.2,278 161,279 160.9,279.8 C160.7,281.9 160.4,284 160.1,286.1 C159.9,287.2 160,287.7 161.3,287.9 C170,289.6 170,289.6 170.5,280.8 L170.5,279.4 C170.5,278.7 170.6,278 171.5,278.1 C172.4,278.2 172.4,278.9 172.5,279.5 L172.5,280.9 C172.2,286.4 172,292 171.7,297.5 C171.7,298.4 171.8,299.8 170.4,299.7 C169,299.6 169.5,298.3 169.5,297.4 C169.5,295.5 170.3,293 169.4,291.8 C168.5,290.6 165.9,291.1 164,290.7 C159.5,289.8 159.5,289.8 159.3,294.4 C159.2,296.1 159.2,297.7 159.1,299.4 C159.1,300.1 158.8,300.7 157.9,300.7 C157,300.7 156.9,300 156.9,299.3 C157,298 157,296.7 157,295.4 Z" id="Shape" fill="#040405"></path><path d="M191.4,262.5 C191.349548,266.5752 189.739095,270.476075 186.9,273.4 C185.714551,274.646111 184.069907,275.351501 182.35,275.351501 C180.630093,275.351501 178.985449,274.646111 177.8,273.4 C173.1,268.8 173.4,259.3 178.2,254.9 C180.9,252.4 181.8,253 186,254.3 C191,255.7 190.7,259.4 191.4,262.5 Z" id="Shape" fill="#040405"></path><path d="M192.8,299 C192.8,299.8 192.7,300.4 191.9,300.6 C191.1,300.8 190.7,300.3 190.4,299.7 C190.3,299.5 190.4,299.3 190.3,299.2 C188.7,293.6 187.9,293.2 182,293.9 C180.8,294 180.5,294.6 180.1,295.5 C179.4,297.3 178.8,299.1 178,300.9 C177.8,301.5 177.2,302.1 176.5,301.7 C175.8,301.3 176.2,300.7 176.4,300.1 C177.1,297.8 178.3,295.7 178.3,293.1 C178.3,292.1 180,290.8 180.7,289.4 C182.2,286.2 183.6,282.8 185.8,280 C186.4,279.2 187,278.1 188.1,278.4 C189.4,278.7 189.1,280 189.1,281 C189.376698,286.680853 190.419459,292.298303 192.2,297.7 C192.498702,298.080577 192.704182,298.525784 192.8,299 Z" id="Shape" fill="#040405"></path><path d="M210.1,265.9 C211.3,265.4 211.9,264.5 212.9,264.6 C214.1,264.6 216,264 216.1,265.5 C216.2,266.5 214.7,268 213.1,268.3 C211.9,268.5 210.3,267 209.6,268 C208.6,269.5 208.5,271.4 207.9,273.3 C210.1,273.1 212.2,272.9 214.3,272.8 C215.1,272.8 216.1,272.8 216.1,273.9 C216.1,275 215.2,275.1 214.3,275 C212,274.8 209.8,275.6 207.5,275.8 C205.9,275.9 205,275.5 205.6,273.6 C207.2,268.2 209.3,262.8 209.4,257 C209.389991,256.570346 209.577878,256.159902 209.90963,255.886694 C210.241383,255.613486 210.680239,255.50779 211.1,255.6 C212.6,255.7 214.2,256 215.7,256.2 C216.3,256.3 216.8,256.6 216.8,257.2 C216.790909,257.482088 216.637388,257.739676 216.3936,257.881885 C216.149812,258.024095 215.850023,258.030938 215.6,257.9 C211.6,256.4 211.2,259 211,261.8 C210.8,263.2 210.4,264.3 210.1,265.9 Z" id="Shape" fill="#040405"></path><path d="M217,290.5 C216.7,293.4 214.8,293.9 212.8,293.6 C210.8,293.3 210.3,293.9 210.1,295.8 C209.3,301.3 209.2,301.3 214.6,300.6 C215.224161,300.467164 215.865343,300.433417 216.5,300.5 C216.982761,300.490264 217.403526,300.826877 217.5,301.3 C217.582469,301.567239 217.540294,301.857403 217.385159,302.090106 C217.230023,302.322809 216.978401,302.473341 216.7,302.5 C214.1,302.8 211.5,303.7 208.8,303.6 C206.9,303.5 207,302.2 207.3,300.8 C208.2,295.9 209,291 209.9,286.1 C210.016027,285.472839 210.082897,284.837574 210.1,284.2 C210.2,282.8 209.6,281 211.5,280.5 C213.46169,279.844482 215.61043,280.062998 217.4,281.1 C217.8,281.3 218.2,281.7 218,282.2 C217.7,283 217.1,282.6 216.6,282.5 C216.1,282.4 215.4,282.2 214.7,282 C212.9,281.7 211.7,282 211.9,284.3 C211.997243,285.956155 211.793967,287.616238 211.3,289.2 C210.5,291.9 212,291.9 213.8,291.7 C214.8,291.4 215.7,290.9 217,290.5 Z" id="Shape" fill="#040405"></path><path d="M197.9,269.4 C199.085312,265.242815 200.624262,261.194709 202.5,257.3 C202.9,256.5 203.4,255.1 204.7,255.8 C206,256.5 204.9,257.5 204.5,258.3 C202.917476,261.631282 201.580581,265.073788 200.5,268.6 C200.31192,269.31428 200.078104,270.015728 199.8,270.7 C199.3,272 198.8,273.6 197.2,273.5 C195.6,273.4 195.8,271.5 195.6,270.4 C194.7,266 194,261.5 193.3,257.1 C193.2,256.5 192.4,255.6 193.6,255.3 C194.5,255.1 194.9,255.9 195.1,256.6 C196.2,259.8 196.5,263.3 197.2,266.6 C197.107072,267.58586 197.35407,268.573855 197.9,269.4 Z" id="Shape" fill="#050506"></path><path d="M201.7,291 L201.7,299.3 C201.7,300.2 201.5,301.4 200.3,301.3 C198.9,301.2 199.4,300 199.5,299.1 C199.7,293.9 199.4,288.6 200.3,283.4 C200.6,281.7 199.5,282 198.6,281.8 C197.2,281.5 194.6,282.4 194.6,280.6 C194.6,278.8 197.2,279.7 198.6,279.7 C201.3,279.5 204.1,279.7 206.9,279.7 C207.8,279.7 209,279.6 209,280.9 C209,282 207.9,281.9 207.1,282 C205.3,282.2 202.9,281.3 201.9,282.7 C201.1,283.8 201.8,286.1 201.8,287.8 C201.8,288.8 201.8,289.9 201.7,291 Z" id="Shape" fill="#0B0B0C"></path><path d="M165.7,272.4 C159.3,272.4 159.2,272.4 160.1,266.1 C160.7,261.6 161.3,257.2 161.9,252.7 C162,252.1 161.9,251.2 162.7,251.2 C163.7,251.2 163.7,252.2 163.7,252.9 C163.8,256.7 163,260.4 162.5,264.1 C161.7,269.9 161.6,269.9 167.4,270.2 C168.302997,270.216891 169.20437,270.283659 170.1,270.4 C170.8,270.5 171.6,270.9 171.4,271.8 C171.2,272.7 170.6,272.9 169.7,272.9 C168.4,272.7 167,272.5 165.7,272.4 Z" id="Shape" fill="#060607"></path><path d="M88.1,240.4 C94.6,237.3 94.8,237.4 96.5,244.4 C98.3,252 98.4,252 91.1,254.8 C86.2136813,256.626551 81.0988521,257.770657 75.9,258.2 C75.3,257.1 74.4,256.4 73.2,257.1 C71.5,258.1 70,256.9 68.4,257 C67.2,257 67.1,256.1 67.4,255 C67.9,253.2 67.1,252.4 65.2,252.8 C64.7,252.9 64,253.3 63.8,252.6 C63.5849276,251.707877 63.6195241,250.77377 63.9,249.9 C64.1,249.3 64.8,249.6 65.3,249.6 C69.2352585,249.798688 73.1799217,249.6984 77.1,249.3 C80,249 81,248.5 80.9,245.7 C80.9,244.7 81.7,244.3 82.7,244.8 C83.7847717,245.337171 84.9920681,245.57863 86.2,245.5 C87.7,245.5 89.4,245.8 90,244.1 C90.7,242.2 89.2,241.4 88.1,240.4 Z" id="Shape" fill="#FEFEFE"></path><path d="M98.2,260.1 C98.2092719,260.431175 98.0674178,260.748592 97.814504,260.962596 C97.5615901,261.1766 97.2250729,261.263959 96.9,261.2 C95.9,261 94.5,261.1 94.3,259.7 C94.1,258.6 95.1,258.3 95.9,258.2 C97.3,258 97.7,259.1 98.2,260.1 Z" id="Shape" fill="#FEFEFE"></path><path d="M164.3,49 C168.839368,49.7182716 173.29508,50.8908275 177.6,52.5 C178.3,52.8 179.1,53.2 178.8,54.1 C178.5,55 177.8,54.9 177,54.7 C175.5,54.4 173.8,54.5 172.4,54 C166.6,51.9 163.1,55.4 159.5,58.8 C158.2,60.1 157.1,60.5 155.4,59.4 C153.7,58.3 153.4,57.1 154.9,55.4 C157.6,52.5 160.2,49.7 164.3,49 Z" id="Shape" fill="#030304"></path><path d="M169.2,60.6 L169.5,60.6 C171.6,60.9 174.2,60.2 175,63.1 C175.6,65.2 174.3,67.5 171.3,68.9 C168.5,70.2 165.5,71.4 162.3,70.7 C160.2,70.2 158.4,69.2 158.1,66.9 C157.8,64.6 159.3,63.6 161,62.7 C163.465523,61.2045057 166.31914,60.4737013 169.2,60.6 Z" id="Shape" fill="#050506"></path><path d="M151.4,82.8 C153.4,83.7 155.7,84 157.6,85.4 C158,85.7 158.4,86 158.1,86.5 C158.031306,86.7202479 157.871951,86.9007513 157.661918,86.9962206 C157.451886,87.0916899 157.211109,87.0930647 157,87 C154.9,86.3 152.9,85.6 150.8,84.8 C150.259165,84.6107458 149.925224,84.068092 150,83.5 C150.2,82.9 150.7,82.8 151.4,82.8 Z" id="Shape" fill="#141415"></path><path d="M189.2,263.4 C189.026819,266.399235 187.785181,269.237265 185.7,271.4 C183.5,273.8 180.7,273.7 178.7,271 C175.9,267.4 175.8,261.4 178.5,257.5 C181.2,253.6 185.8,253.9 188.1,258.3 C188.906107,259.874641 189.285377,261.633078 189.2,263.4 Z" id="Shape" fill="#FDFDFD"></path><path d="M187,281.5 C187.4,284.8 187.7,287.5 188.1,290.2 C188.3,291.5 187.8,291.8 186.6,291.7 C185.1,291.6 183.7,291.7 181.8,291.7 C183.313544,288.192354 185.050441,284.785364 187,281.5 Z" id="Shape" fill="#F6F6F6"></path><path d="M163,69 C161.5,68.4 160.1,68 160.1,66.4 C160.1,65 161.6,64.7 162.5,64 C165.04357,62.1751466 168.244172,61.520478 171.3,62.2 C172.1,62.4 173,62.4 173.3,63.3 C173.6,64.2 173.1,65 172.5,65.7 C171.354666,66.9322205 169.850026,67.7720196 168.2,68.1 C167.5,68.3 166.8,68.6 166.6,67.4 C166.3,66 165.8,64.5 163.9,65.1 C162,65.7 162.9,67.5 163,69 Z" id="Shape" fill="#FAFAFA"></path></g><g id="Farbe" transform="translate(59.000000, 185.000000)"><path d="M111.2,37 L114.2,45.3 L125.2,52.3 L135.2,52.3 L145.2,46 L152.2,39 L162.2,37.3 L170.2,38.6 L175.9,44.3 C175.9,44.3 198.6,84.3 200.2,85.3 C201.8,86.3 208.9,96.6 208.9,96.6 L208.9,101.3 L205.9,106 L202.6,100 L190.9,109.7 L186.9,106.7 L166.2,68.4 L165.9,74.1 L163.2,119.1 L157.9,176.1 L150.2,176.4 L134.9,181.4 L123.9,182.1 L119.6,182.8 L119.6,188.1 L77.9,188.1 L92.2,87.1 L78.2,79.1 L87.5,58.4 L89.8,52.7 L99.5,46 L104.8,43 L111.2,37 Z" id="Shape" fill="#8FCBAC"></path><polygon id="Shape" fill="#303030" points="7.8 45 0.2 17.3 1.8 13 40.5 0 45.2 1 70.8 82.7 70.2 88.7 60.5 93.3 49.5 98.3 46.8 97 47.5 91.3 44.2 80 41.8 69 38.5 68.3 39.8 62.3 37.5 53 34.8 52.3 33.2 42.3 29.5 40 24.5 39.7"></polygon></g><g id="Blondschopf" transform="translate(125.000000, 24.000000)" fill="#FDEA04"><polygon id="Shape" points="0.5 13 8.5 20.8 14 15 22.5 11 34.5 9.5 44.7 9.5 54.5 13 56 15 55.2 22 58 26.8 61 31.8 65.7 50.5 69.7 50.8 70 47.5 70 40.2 72.5 36 78.5 33.2 83.5 36.5 83.5 31.8 85 29.5 88 28.8 82.5 20 71.5 12 58 6 42.7 3.5 24.5 1.5 16.5 1.8 8.5 0.8 10.7 6.8 6.2 6.8 6.5 11.8"></polygon></g></g></g></svg>