<svg xmlns="http://www.w3.org/2000/svg" viewBox="0 0 192.96 288.8"><defs><style>.cls-1{fill:#ffef00;}.cls-2,.cls-3,.cls-5{fill:none;}.cls-2{stroke:#67bc95;}.cls-2,.cls-3{stroke-width:3px;}.cls-3{stroke:#f7331f;}.cls-4{fill:#fff;}.cls-6{fill:#6595cf;}.cls-7{font-size:30px;fill:#e4442a;font-family:Gotham-Book, Gotham;}</style></defs><title>Machine_learning</title><g id="Layer_2" data-name="Layer 2"><g id="Layer_1-2" data-name="Layer 1"><path class="cls-1" d="M90.55,169.48a20.38,20.38,0,0,1-10.17,17.64c-3,1.74,1.54,6-10.2,6-13.43,0-6.83-4.19-9.72-5.76a20.38,20.38,0,1,1,30.09-17.91Z"/><rect class="cls-2" x="22.94" y="107.74" width="92.11" height="92.11"/><rect class="cls-3" x="68.99" y="56.15" width="92.11" height="92.11"/><path class="cls-4" d="M79.73,0H82l9.57,21.15H89L86.51,15.6H75.08l-2.49,5.55H70.16Zm5.85,13.44L80.81,2.76,76,13.44Z"/><path class="cls-4" d="M95.66,21.51h8.94a7.71,7.71,0,0,1,5.49,1.86,4.66,4.66,0,0,1,1.35,3.36v.06a5.07,5.07,0,0,1-3.33,4.86c2.49.75,4.5,2.19,4.5,5.07v.06c0,3.6-3,5.73-7.62,5.73H95.66ZM109,27.06c0-2.07-1.65-3.42-4.65-3.42H98v7.23h6.21c2.85,0,4.83-1.29,4.83-3.75ZM104.63,33H98v7.41h7c3.18,0,5.16-1.41,5.16-3.75v-.06C110.21,34.29,108.29,33,104.63,33Z"/><path class="cls-4" d="M116.39,56.62v-.06A10.58,10.58,0,0,1,127,45.7,10.93,10.93,0,0,1,135.2,49l-1.62,1.74a9.13,9.13,0,0,0-6.6-2.88c-4.65,0-8.13,3.78-8.13,8.61v.06c0,4.86,3.51,8.67,8.13,8.67,2.88,0,4.77-1.11,6.78-3l1.56,1.53a10.93,10.93,0,0,1-8.4,3.69A10.47,10.47,0,0,1,116.39,56.62Z"/><polygon class="cls-1" points="45.88 136 0 136 0 90.12 45.88 136"/><path class="cls-5" d="M11.34,243.16v.61L4.22,261.36H10a1.51,1.51,0,0,1,1.52,1.21l2.27,11.07H24.23a1.51,1.51,0,0,1,1.52,1.51l.45,10.46,28.2-.3c0-4.7,0-19.1.15-21.23s.45-4.7.76-7.27c.91-7.28,2-16.37.15-20.47a.15.15,0,0,1-.15-.15c-2.88-8.34-11.83-14.4-21.53-14.4C21.65,221.79,11.34,231.64,11.34,243.16Z"/><path class="cls-5" d="M82.14,183.74a19.38,19.38,0,0,0,7-14.71,18.94,18.94,0,0,0-6.36-14.25,18.64,18.64,0,0,0-14.86-4.7,19,19,0,0,0-16.52,16.83A18.45,18.45,0,0,0,58,183.43,11.2,11.2,0,0,1,62.13,191h6.52V175.7H65.47v-3h9.39v3H71.68V191H78.2A10.89,10.89,0,0,1,82.14,183.74Z"/><rect class="cls-5" x="62.28" y="194.05" width="15.77" height="12.43"/><path class="cls-5" d="M128.83,243.16c0-11.52-10.31-21.37-22.43-21.37-9.55,0-18.5,6.06-21.38,14.4a.15.15,0,0,1-.15.15c-1.82,4.1-.76,13.19.15,20.47.3,2.57.61,4.85.76,7.27s.15,16.53.15,21.23l28.2.3.45-10.46a1.51,1.51,0,0,1,1.52-1.51h10.46l2.27-11.07a1.51,1.51,0,0,1,1.52-1.21H136l-7.13-17.59Z"/><path class="cls-6" d="M139.9,262.42l-8-19.56c-.16-12.89-11.37-23.65-24.87-24.1v-.09l-3,.21v0c-9.85.91-18.8,7.43-21.83,16.22-2.27,4.85-1.21,14-.15,22,.3,2.58.61,5.16.76,7.13s.15,22.43.15,22.58a1.52,1.52,0,0,0,1.52,1.52l31.22.46a1.68,1.68,0,0,0,1.52-1.52l.46-10.61h10.15a1.53,1.53,0,0,0,1.52-1.22l2.27-10.91h6.82a2,2,0,0,0,1.37-.61A2.6,2.6,0,0,0,139.9,262.42Zm-9.55-1.06a1.51,1.51,0,0,0-1.52,1.21l-2.27,11.07H116.1a1.51,1.51,0,0,0-1.52,1.51l-.45,10.46-28.2-.3c0-4.7,0-18.8-.15-21.23s-.46-4.7-.76-7.27c-.91-7.28-2-16.37-.15-20.47a.15.15,0,0,0,.15-.15c2.88-8.34,11.83-14.4,21.38-14.4,12.12,0,22.43,9.85,22.43,21.37v.61L136,261.36Z"/><path class="cls-4" d="M107,198.29H81.08v-5.91a8.83,8.83,0,0,1,3-6.37,22,22,0,0,0,8-17,22.59,22.59,0,0,0-7.28-16.52,22.28,22.28,0,0,0-17.28-5.46,22,22,0,0,0-19.26,19.56,21.54,21.54,0,0,0,7.74,19.1,8.49,8.49,0,0,1,3.18,6.36v6.22H33.33v20.47c-13.5.45-24.71,11.21-24.87,24.1l-8,19.41a2.61,2.61,0,0,0,.15,1.51,2.3,2.3,0,0,0,1.36.61H8.77L11,275.3a1.53,1.53,0,0,0,1.52,1.22H22.71l.46,10.61a1.67,1.67,0,0,0,1.51,1.51l31.23-.45a1.52,1.52,0,0,0,1.52-1.52c0-.15,0-19.86.15-22.59s.46-4.54.76-7.12c1.06-8,2.12-17.13-.15-22-3-8.8-12-15.31-21.83-16.22V201.32H59.25v8.19H81.08v-8.19H104v17.56l3-.21Zm-51.69,37.9a.15.15,0,0,0,.15.15c1.82,4.1.76,13.19-.15,20.47-.31,2.57-.61,5.15-.76,7.27s-.15,16.53-.15,21.23l-28.2.3-.45-10.46a1.51,1.51,0,0,0-1.52-1.51H13.77L11.5,262.57A1.51,1.51,0,0,0,10,261.36H4.22l7.12-17.59v-.61c0-11.52,10.31-21.37,22.44-21.37C43.48,221.79,52.43,227.85,55.31,236.19Zm22.74-29.71H62.28V194.05H78.05ZM78.2,191H71.68V175.7h3.18v-3H65.47v3h3.18V191H62.13A11.2,11.2,0,0,0,58,183.43a18.45,18.45,0,0,1-6.67-16.52,19,19,0,0,1,16.52-16.83,18.64,18.64,0,0,1,14.86,4.7A18.94,18.94,0,0,1,89.11,169a19.38,19.38,0,0,1-7,14.71A10.89,10.89,0,0,0,78.2,191Z"/><text class="cls-7" transform="translate(120.04 189.56)">1<tspan class="cls-6" x="10.74" y="0">2</tspan><tspan x="28.71" y="0">3</tspan></text><circle class="cls-6" cx="112.49" cy="241.64" r="2.55"/><path class="cls-4" d="M30.34,242.54a7.7,7.7,0,0,1-4.4,1.65,7.65,7.65,0,0,1-4.39-1.65,7.65,7.65,0,0,1,4.39-1.65A7.7,7.7,0,0,1,30.34,242.54Z"/></g></g></svg>