<svg xmlns="http://www.w3.org/2000/svg" viewBox="0 0 207.09 198.69"><defs><style>.cls-1,.cls-4{fill:#fff;}.cls-1{stroke:#6595cf;}.cls-1,.cls-2,.cls-3,.cls-4,.cls-5{stroke-width:3px;}.cls-2,.cls-3,.cls-5{fill:none;}.cls-2{stroke:#67bc95;}.cls-3{stroke:#f7331f;}.cls-4,.cls-5{stroke:#ffef00;stroke-miterlimit:10;}</style></defs><title>Blue_sky</title><g id="Layer_2" data-name="Layer 2"><g id="Layer_1-2" data-name="Layer 1"><line class="cls-1" x1="58.34" y1="44.82" x2="72.81" y2="59.29"/><line class="cls-1" x1="72.81" y1="44.82" x2="58.34" y2="59.29"/><line class="cls-1" x1="13.78" y1="47.48" x2="28.24" y2="61.95"/><line class="cls-1" x1="28.24" y1="47.48" x2="13.78" y2="61.95"/><line class="cls-1" x1="187.01" y1="41.19" x2="201.48" y2="55.66"/><line class="cls-1" x1="201.48" y1="41.19" x2="187.01" y2="55.66"/><line class="cls-1" x1="27.21" y1="85.64" x2="41.67" y2="100.11"/><line class="cls-1" x1="41.67" y1="85.64" x2="27.21" y2="100.11"/><line class="cls-1" x1="154.97" y1="84.74" x2="169.43" y2="99.21"/><line class="cls-1" x1="169.43" y1="84.74" x2="154.97" y2="99.21"/><line class="cls-1" x1="135.79" y1="1.06" x2="150.26" y2="15.53"/><line class="cls-1" x1="150.26" y1="1.06" x2="135.79" y2="15.53"/><line class="cls-1" x1="144.4" y1="53.94" x2="158.87" y2="68.4"/><line class="cls-1" x1="158.87" y1="53.94" x2="144.4" y2="68.4"/><line class="cls-1" x1="98.92" y1="22.54" x2="113.39" y2="37.01"/><line class="cls-1" x1="113.39" y1="22.54" x2="98.92" y2="37.01"/><line class="cls-1" x1="54.28" y1="1.83" x2="68.75" y2="16.29"/><line class="cls-1" x1="68.75" y1="1.83" x2="54.28" y2="16.29"/><line class="cls-1" y1="140.32" x2="207.09" y2="140.32"/><line class="cls-2" y1="168.28" x2="139.03" y2="168.28"/><line class="cls-3" y1="197.19" x2="77.56" y2="197.19"/><path class="cls-4" d="M134.55,120.19A34.55,34.55,0,1,1,88.74,74.38a34.56,34.56,0,0,0,45.81,45.81Z"/><path class="cls-5" d="M137.69,105.78a34.38,34.38,0,0,1-3.14,14.41A34.56,34.56,0,0,1,88.74,74.38a34.56,34.56,0,0,1,49,31.4Z"/></g></g></svg>