<svg xmlns="http://www.w3.org/2000/svg" viewBox="0 0 257.14 246.46"><defs><style>.cls-1{stroke:#63a0ff;}.cls-1,.cls-3{stroke-width:3px;}.cls-2{fill:#ffef00;}.cls-3{fill:none;stroke:#ffef00;stroke-miterlimit:10;}.cls-4{fill:#e4442a;}.cls-5{fill:#fff;}</style></defs><title>Time_Engineering</title><g id="Layer_2" data-name="Layer 2"><g id="Layer_1-2" data-name="Layer 1"><g id="_18_About_Black_Mobile-Copy" data-name="18_About_Black_Mobile-Copy"><g id="A-day-in-metro"><g id="Clock_outlines" data-name="Clock outlines"><circle id="Oval" class="cls-1" cx="131.02" cy="119.88" r="88"/><g id="Strokes"><rect id="Rectangle-3" class="cls-2" x="130.17" y="38.65" width="3.38" height="15.23"/><rect id="Rectangle-3-Copy" class="cls-2" x="130.17" y="185.88" width="3.38" height="15.23"/></g><g id="Strokes-2" data-name="Strokes"><rect id="Rectangle-3-2" data-name="Rectangle-3" class="cls-2" x="197.87" y="118.18" width="15.23" height="3.38"/><rect id="Rectangle-3-Copy-2" data-name="Rectangle-3-Copy" class="cls-2" x="50.64" y="118.18" width="15.23" height="3.38"/></g><g id="Strokes-3" data-name="Strokes"><rect id="Rectangle-3-3" data-name="Rectangle-3" class="cls-2" x="193.93" y="149.07" width="3.38" height="15.23" transform="translate(-37.88 247.75) rotate(-60)"/><rect id="Rectangle-3-Copy-3" data-name="Rectangle-3-Copy" class="cls-2" x="66.42" y="75.45" width="3.38" height="15.23" transform="translate(-37.88 100.52) rotate(-60)"/></g><g id="Strokes-4" data-name="Strokes"><rect id="Rectangle-3-4" data-name="Rectangle-3" class="cls-2" x="166.98" y="176.01" width="3.38" height="15.23" transform="translate(-69.22 108.94) rotate(-30)"/><rect id="Rectangle-3-Copy-4" data-name="Rectangle-3-Copy" class="cls-2" x="93.37" y="48.51" width="3.38" height="15.23" transform="translate(-15.33 55.05) rotate(-30)"/></g><g id="Strokes-5" data-name="Strokes"><rect id="Rectangle-3-5" data-name="Rectangle-3" class="cls-2" x="188" y="81.38" width="15.23" height="3.38" transform="translate(-15.33 108.94) rotate(-30)"/></g><g id="Strokes-6" data-name="Strokes"><rect id="Rectangle-3-6" data-name="Rectangle-3" class="cls-2" x="161.06" y="54.43" width="15.23" height="3.38" transform="translate(35.73 174.14) rotate(-60)"/><rect id="Rectangle-3-Copy-5" data-name="Rectangle-3-Copy" class="cls-2" x="87.44" y="181.94" width="15.23" height="3.38" transform="translate(-111.5 174.14) rotate(-60)"/></g><circle id="Oval-2" data-name="Oval" class="cls-3" cx="131.44" cy="120.3" r="81.65"/><g id="Strokes-7" data-name="Strokes"><rect id="Rectangle-3-7" data-name="Rectangle-3" class="cls-2" x="187.95" y="81.28" width="15.23" height="3.38" transform="translate(-15.25 109.2) rotate(-30.08)"/><rect id="Rectangle-3-Copy-6" data-name="Rectangle-3-Copy" class="cls-2" x="60.55" y="155.08" width="15.23" height="3.38" transform="translate(-69.4 55.29) rotate(-30.08)"/></g></g></g></g><path class="cls-4" d="M44,181.25l-4.15-.1.08-2,5.43,0,1.64.56-6.78,20L38,199Z"/><path class="cls-4" d="M153.62,19.69,161.24,13c3.21-2.88,4.38-4.5,4.38-6.6a4,4,0,0,0-4.23-4c-2.4,0-4,1.26-5.64,3.6L154,4.69c1.89-2.82,3.87-4.47,7.56-4.47s6.51,2.52,6.51,5.94v.06c0,3.06-1.62,5-5.31,8.16l-5.61,5h11.13v2.16H153.62Z"/><path class="cls-4" d="M100.33,239.42l2.19-.76a7.52,7.52,0,0,0,4.49,5.19c2.36,1,4.86.24,5.79-2l0-.06c1-2.42-.72-4.67-3.91-6l-1.25-.51.08-1.48,9-4.42-9.5-3.87.8-2,12.42,5.06-.66,1.61-8.87,4.29c3.28,1.65,5.64,4.53,4.19,8.08l0,.06c-1.42,3.47-5.28,4.68-8.89,3.21A9.53,9.53,0,0,1,100.33,239.42Z"/><path class="cls-4" d="M229.65,196.76l1.56-1.71a8.79,8.79,0,0,0,6,2.88c3,0,5.07-2,5.07-4.65v-.06c0-2.61-2.16-4.41-5.22-4.41a9.06,9.06,0,0,0-4.41,1.2L231,189l.6-10.23h12.09v2.19h-10l-.45,6.72a9.48,9.48,0,0,1,4.14-.93c4.08,0,7.26,2.4,7.26,6.42v.06c0,4.11-3.12,6.9-7.5,6.9A10.71,10.71,0,0,1,229.65,196.76Z"/><path class="cls-4" d="M243.4,80.32l0,0c-1.46-2-1.05-4.5.46-6.71-2.1.42-4.32.18-5.75-1.79l0,0c-1.91-2.62-.58-6.45,2.53-8.7s7.16-2.35,9.06.27l0,.05c1.43,2,1,4.15-.07,6,2.56-.71,5-.41,6.51,1.61l0,0c2.1,2.88.75,6.84-2.87,9.46S245.46,83.16,243.4,80.32Zm10.78-7.92,0,0c-1.38-1.9-4.31-1.8-6.79,0s-3.47,4.56-2.09,6.45l0,0c1.24,1.7,4,2,6.76,0S255.44,74.13,254.18,72.4Zm-6.34-7.55,0,0c-1.21-1.67-3.81-1.71-6-.11s-3,4.06-1.75,5.76l0,0c1.34,1.84,4,1.85,6.14.28S249.18,66.7,247.84,64.85Z"/><path class="cls-4" d="M81.1,8.87,81,8.47a6.74,6.74,0,0,1-4.55,5.07c-4.08,1.39-7.8-.22-9-3.8l0-.05C66.08,5.91,68,1.93,72.22.49a7.41,7.41,0,0,1,5.92.26c2,1,3.74,2.88,5.09,6.85l0,.06c2.15,6.3.32,11.9-4.59,13.58a9.72,9.72,0,0,1-7-.35l.71-2.18a7.59,7.59,0,0,0,5.61.46C81.85,17.87,82.56,13.15,81.1,8.87ZM79.42,5.35l0-.06c-.86-2.52-3.61-3.8-6.59-2.79a4.82,4.82,0,0,0-3.18,6.29l0,.05c.86,2.53,3.47,3.67,6.36,2.68A4.92,4.92,0,0,0,79.42,5.35Z"/><path class="cls-4" d="M0,93v-.06C0,87,3.51,82.06,8.91,82.06s8.82,4.92,8.82,10.8v.06c0,5.88-3.48,10.86-8.88,10.86S0,98.86,0,93Zm15.27,0v-.06c0-4.59-2.52-8.7-6.42-8.7s-6.39,4-6.39,8.64v.06c0,4.59,2.52,8.7,6.45,8.7S15.27,97.57,15.27,93Z"/><polygon class="cls-4" points="103.3 117.97 75.48 117.15 71.57 119.29 71.57 122.27 73.49 123.53 94.36 125.65 94.36 128.96 95.81 132 96.41 135.58 98 137.37 97.86 138.63 99.79 141.47 106.81 143.4 123.1 141.41 128.73 140.55 129.32 121.47 120.2 118.36 114.16 113.71 108.79 112.8 104.22 116.02 103.3 117.97"/><path class="cls-5" d="M97.19,140.84v.22h.22c7.28,7,21.49.1,30.47.54l2,0,.54-21.25-2-.27c-8.1-.64-11.61-9.07-18.43-8.36a8.52,8.52,0,0,0-7.12,4.21l-.46.64c-2.63.16-5.26.09-6.36.06l-16-.4c-3.94-.1-11-.06-9.57,5.9.38,2.2,3.88,2.51,5.63,2.77,3.05.52,5.9.59,8.75.88,2.63.07,5.47.36,8.1.42a4.57,4.57,0,0,0,1.85,5.09,4.9,4.9,0,0,0,1.82,6A4.11,4.11,0,0,0,97.19,140.84Zm1.57-1.27a2.36,2.36,0,0,1,.95-3.27c-3.07.14-4.72-3.85-1.83-5.53-4.14-1-3.4-4.47-1.59-6.4-5-.34-23.44-1-23.84-2.57-1-3.75,4-3.63,7.54-3.54,3.73.1,32.43,1,32.47-.28,0-.87-4.59-.77-7.87-1.07a6.84,6.84,0,0,1,5.56-3.15c5.94-.73,8.8,7.46,18.21,8.35l-.44,17.53C119,139,105.18,145.65,98.76,139.57Z"/><polygon class="cls-4" points="128.5 91.22 127.69 63.41 129.83 59.5 132.81 59.5 134.06 61.42 136.19 82.28 139.5 82.28 142.54 83.74 146.12 84.33 147.91 85.92 149.16 85.79 152.01 87.71 153.93 94.73 151.95 111.02 151.09 116.65 132.01 117.25 128.9 108.12 124.25 102.08 123.34 96.72 126.56 92.15 128.5 91.22"/><path class="cls-5" d="M147.86,84.54a4.93,4.93,0,0,0-6-1.82,4.58,4.58,0,0,0-5.09-1.84c-.07-2.63-.36-5.48-.42-8.11-.29-2.84-.37-5.69-.88-8.75-.26-1.74-.57-5.25-2.77-5.63-6-1.38-6,5.63-5.9,9.58l.4,16c0,1.09.09,3.72-.06,6.36l-.65.45a8.51,8.51,0,0,0-4.2,7.13c-.71,6.81,7.71,10.33,8.35,18.43l.27,2,21.26-.53,0-2c-.44-9,6.44-23.19-.55-30.47v-.22h-.22A4.15,4.15,0,0,0,147.86,84.54Zm2.32,31.31-17.53.44c-.9-9.41-9.08-12.28-8.36-18.21a6.86,6.86,0,0,1,3.15-5.57c.31,3.29.2,7.89,1.08,7.87,1.31,0,.37-28.74.28-32.46-.09-3.51-.22-8.55,3.54-7.55,1.54.4,2.22,18.81,2.57,23.84,1.93-1.8,5.42-2.55,6.4,1.6,1.68-2.9,5.67-1.24,5.53,1.83a2.36,2.36,0,0,1,3.26-1C156.19,93.11,149.52,106.87,150.18,115.85Z"/></g></g></svg>