<svg width="181" height="25" viewBox="0 0 181 25" fill="none" xmlns="http://www.w3.org/2000/svg">
<path d="M118.217 2.15384C118.217 1.20162 118.989 0.429688 119.941 0.429688H178.71C179.662 0.429688 180.434 1.20162 180.434 2.15384V22.8405C180.434 23.7927 179.662 24.5647 178.71 24.5647H119.941C118.989 24.5647 118.217 23.7927 118.217 22.8405V2.15384Z" fill="#647DEB"/>
<path d="M128.216 17.8052C129.417 17.8052 130.192 17.2426 130.755 16.4825V17.6531H133.066V6.55469H130.755V10.5684C130.208 9.91463 129.447 9.3521 128.216 9.3521C126.285 9.3521 124.506 10.842 124.506 13.5634V13.5938C124.506 16.3152 126.316 17.8052 128.216 17.8052ZM128.809 15.8439C127.729 15.8439 126.817 14.9469 126.817 13.5938V13.5634C126.817 12.1951 127.729 11.3133 128.809 11.3133C129.888 11.3133 130.785 12.2103 130.785 13.5634V13.5938C130.785 14.9469 129.888 15.8439 128.809 15.8439Z" fill="white"/>
<path d="M135.176 8.60714H137.609V6.55469H135.176V8.60714ZM135.237 17.6531H137.548V9.50413H135.237V17.6531Z" fill="white"/>
<path d="M143.367 20.1161C144.948 20.1161 146.119 19.7816 146.879 19.0214C147.563 18.3373 147.913 17.273 147.913 15.8135V9.50413H145.602V10.5684C144.979 9.88422 144.234 9.3521 142.972 9.3521C141.102 9.3521 139.353 10.7204 139.353 13.1529V13.1833C139.353 15.6007 141.071 16.9842 142.972 16.9842C144.203 16.9842 144.948 16.4825 145.632 15.6615V16.0568C145.632 17.5163 144.887 18.2765 143.306 18.2765C142.227 18.2765 141.391 18.0028 140.554 17.5315L139.764 19.2647C140.798 19.812 142.044 20.1161 143.367 20.1161ZM143.641 15.0686C142.516 15.0686 141.664 14.3084 141.664 13.1833V13.1529C141.664 12.0431 142.516 11.2677 143.641 11.2677C144.766 11.2677 145.632 12.0431 145.632 13.1529V13.1833C145.632 14.2932 144.766 15.0686 143.641 15.0686Z" fill="white"/>
<path d="M150.023 8.60714H152.456V6.55469H150.023V8.60714ZM150.084 17.6531H152.395V9.50413H150.084V17.6531Z" fill="white"/>
<path d="M157.317 17.79C158.092 17.79 158.655 17.6075 159.141 17.3186V15.4638C158.807 15.6463 158.427 15.7527 158.001 15.7527C157.484 15.7527 157.256 15.4942 157.256 14.9621V11.4806H159.172V9.50413H157.256V7.42128H154.945V9.50413H153.972V11.4806H154.945V15.3422C154.945 17.2274 155.903 17.79 157.317 17.79Z" fill="white"/>
<path d="M163.186 17.8052C164.311 17.8052 165.087 17.3947 165.649 16.7713V17.6531H167.884V12.9249C167.884 11.8302 167.61 10.9332 167.002 10.3251C166.424 9.74739 165.512 9.41291 164.25 9.41291C162.867 9.41291 161.985 9.67137 161.088 10.0667L161.666 11.8302C162.411 11.5566 163.034 11.3893 163.916 11.3893C165.071 11.3893 165.664 11.9215 165.664 12.8793V13.0161C165.087 12.8185 164.494 12.6816 163.673 12.6816C161.742 12.6816 160.389 13.5026 160.389 15.2814V15.3118C160.389 16.9234 161.651 17.8052 163.186 17.8052ZM163.885 16.2088C163.141 16.2088 162.624 15.8439 162.624 15.2206V15.1902C162.624 14.4604 163.232 14.0651 164.22 14.0651C164.782 14.0651 165.299 14.1868 165.695 14.3692V14.7797C165.695 15.6159 164.965 16.2088 163.885 16.2088Z" fill="white"/>
<path d="M169.979 17.6531H172.29V6.55469H169.979V17.6531Z" fill="white"/>
<path d="M103.057 7.96897C105.231 7.96897 107.089 9.47114 107.564 11.5663C107.603 11.6849 107.682 11.7639 107.801 11.7639H112.228C112.347 11.7639 112.466 11.6453 112.466 11.5267C112.466 9.62926 110.331 3.10669 103.057 3.10669C95.7836 3.10669 93.6489 9.62926 93.6489 11.5267C93.6489 11.6453 93.7675 11.7639 93.8861 11.7639H98.3136C98.4321 11.7639 98.5112 11.6849 98.5507 11.5663C99.0251 9.43161 100.883 7.96897 103.057 7.96897Z" fill="white"/>
<path d="M103.057 17.1795C105.231 17.1795 107.089 15.6773 107.564 13.5822C107.603 13.4636 107.682 13.3845 107.801 13.3845H112.228C112.347 13.3845 112.466 13.5031 112.466 13.6217C112.466 15.5192 110.331 22.0418 103.057 22.0418C95.7836 22.0418 93.6489 15.5192 93.6489 13.6217C93.6489 13.5031 93.7675 13.3845 93.8861 13.3845H98.3136C98.4321 13.3845 98.5112 13.4636 98.5507 13.5822C99.0251 15.6773 100.883 17.1795 103.057 17.1795Z" fill="white"/>
<path d="M59.6508 21.4488C59.6508 21.5674 59.5322 21.6859 59.4136 21.6859H54.828C54.7094 21.6859 54.5908 21.5674 54.5908 21.4488V9.70813C54.5908 9.58954 54.7094 9.47095 54.828 9.47095H59.4136C59.5322 9.47095 59.6508 9.58954 59.6508 9.70813V21.4488Z" fill="white"/>
<path d="M49.1747 7.88982C49.0561 7.88982 48.9375 7.77123 48.9375 7.65264V3.66004C48.9375 3.54144 49.0561 3.42285 49.1747 3.42285H65.066C65.1846 3.42285 65.3032 3.54144 65.3032 3.66004V7.65264C65.3032 7.77123 65.1846 7.88982 65.066 7.88982H49.1747Z" fill="white"/>
<path d="M34.5487 14.5705C34.4301 14.5705 34.3115 14.4519 34.3115 14.3333V10.8151C34.3115 10.6965 34.4301 10.5779 34.5487 10.5779H41.2294C41.348 10.5779 41.4666 10.6965 41.4666 10.8151V14.3333C41.4666 14.4519 41.348 14.5705 41.2294 14.5705H34.5487Z" fill="white"/>
<path d="M42.2563 17.2586H32.7294V7.88983H42.1377C42.2563 7.88983 42.3749 7.77123 42.3749 7.65264V3.66004C42.3749 3.54144 42.2563 3.42285 42.1377 3.42285H27.9462C27.8276 3.42285 27.709 3.54144 27.709 3.66004V21.4489C27.709 21.5675 27.8276 21.6861 27.9462 21.6861H42.2958C42.4144 21.6861 42.533 21.5675 42.533 21.4489V17.4563C42.4935 17.3377 42.3749 17.2586 42.2563 17.2586Z" fill="white"/>
<path d="M19.8046 3.5022C19.8046 3.42314 19.7651 3.34408 19.686 3.30455C19.607 3.26502 19.5279 3.26502 19.4489 3.30455L10.1196 8.95745L0.790347 3.30455C0.711285 3.26502 0.632224 3.26502 0.553163 3.30455C0.474101 3.34408 0.43457 3.42314 0.43457 3.5022V21.4492C0.43457 21.5678 0.553163 21.6863 0.671755 21.6863H5.25732C5.37591 21.6863 5.4945 21.5678 5.4945 21.4492V11.5665L9.92195 14.215C9.96148 14.2546 10.0801 14.2941 10.1591 14.2941C10.2382 14.2941 10.3568 14.2546 10.3963 14.215C10.3963 14.215 19.686 8.68073 19.7256 8.6412C19.8442 8.60167 19.8442 8.52261 19.8442 8.36449C19.8046 8.32495 19.8046 3.5022 19.8046 3.5022Z" fill="white"/>
<path d="M19.684 10.6568C19.605 10.6173 19.5259 10.6173 19.4469 10.6568L14.9404 13.3449C14.8218 13.424 14.7822 13.4635 14.7822 13.6612V21.4487C14.7822 21.5673 14.9008 21.6859 15.0194 21.6859H19.605C19.7236 21.6859 19.8422 21.5673 19.8422 21.4487V10.8545C19.8026 10.7754 19.7631 10.6964 19.684 10.6568Z" fill="white"/>
<path d="M76.2129 3.4624H71.6669C71.5483 3.4624 71.4297 3.58099 71.4297 3.69959V21.4489C71.4297 21.5675 71.5483 21.6861 71.6669 21.6861H76.2129C76.3315 21.6861 76.4501 21.5675 76.4501 21.4489V3.69959C76.4501 3.54146 76.3315 3.4624 76.2129 3.4624Z" fill="white"/>
<path d="M76.4545 21.4489C76.4545 21.5675 76.3359 21.6861 76.2173 21.6861H71.6317C71.5131 21.6861 71.3945 21.5675 71.3945 21.4489V3.66004C71.3945 3.54144 71.5131 3.42285 71.6317 3.42285H76.2173C76.3359 3.42285 76.4545 3.54144 76.4545 3.66004V21.4489Z" fill="white"/>
<path d="M83.2913 15.3611C83.2913 15.3611 87.5606 14.1357 87.5606 9.58965C87.5606 3.42285 81.6705 3.42285 79.2196 3.42285H78.3104C78.1918 3.42285 78.0732 3.54144 78.0732 3.66004V7.65264C78.0732 7.77123 78.1918 7.88983 78.3104 7.88983H79.7731C80.4846 7.88983 82.5007 8.00842 82.5007 10.064C82.5007 12.1196 80.366 12.2382 79.8126 12.2382H78.3104C78.1918 12.2382 78.0732 12.3568 78.0732 12.4754V15.9541C78.0732 16.1913 78.1523 16.2703 78.1918 16.3099L81.7496 21.5675C81.7891 21.6465 81.8682 21.6861 81.9473 21.6861H87.2048C87.2839 21.6861 87.363 21.6465 87.4025 21.5675C87.442 21.4884 87.442 21.4093 87.4025 21.3303L83.2913 15.3611Z" fill="white"/>
</svg>