<?xml version="1.0" encoding="UTF-8"?>
<svg xmlns="http://www.w3.org/2000/svg" xmlns:xlink="http://www.w3.org/1999/xlink" width="1283pt" height="723pt" viewBox="0 0 1283 723" version="1.1">
<g id="surface16789">
<path style="fill-rule:evenodd;fill:rgb(15.6862745098039%,19.2156862745098%,22.7450980392157%);fill-opacity:1;stroke-width:0.1;stroke-linecap:butt;stroke-linejoin:miter;stroke:rgb(15.6862745098039%,19.2156862745098%,22.7450980392157%);stroke-opacity:1;stroke-miterlimit:10;" d="M 0 0 L 64 0 L 64 36 L 0 36 Z M 0 0 " transform="matrix(20,0,0,20,2,2)"/>
<path style="fill-rule:evenodd;fill:rgb(10.1960784313725%,72.9411764705882%,54.1176470588235%);fill-opacity:1;stroke-width:0.1;stroke-linecap:butt;stroke-linejoin:miter;stroke:rgb(10.1960784313725%,72.9411764705882%,54.1176470588235%);stroke-opacity:1;stroke-miterlimit:10;" d="M 7 0 C 3.133984 0 0 3.133984 0 7 L 0 29 C 0 32.866016 3.133984 36 7 36 L 43 36 C 46.866016 36 50 32.866016 50 29 L 50 7 C 50 3.133984 46.866016 0 43 0 Z M 7 0 " transform="matrix(20,0,0,20,2,2)"/>
<path style="fill-rule:evenodd;fill:rgb(10.1960784313725%,72.9411764705882%,54.1176470588235%);fill-opacity:1;stroke-width:0.1;stroke-linecap:butt;stroke-linejoin:miter;stroke:rgb(10.1960784313725%,72.9411764705882%,54.1176470588235%);stroke-opacity:1;stroke-miterlimit:10;" d="M 0 0 L 7 0 L 7 36 L 0 36 Z M 0 0 " transform="matrix(20,0,0,20,2,2)"/>
</g>
</svg>
